<svg xmlns="http://www.w3.org/2000/svg" width="620" height="320" viewBox="0 0 620 320" font-family="Segoe UI,Helvetica,Arial,sans-serif">
<rect width="620" height="320" fill="#ffffff"/>
<text x="310" y="26" text-anchor="middle" font-size="17" font-weight="600" fill="#222222">Cold first call (fresh process: lib load + JIT + first eval)</text>
<line x1="64" y1="271.3" x2="604" y2="271.3" stroke="#dddddd" stroke-width="1"/>
<text x="56" y="275.3" text-anchor="end" font-size="11" fill="#666666">100 µs</text>
<line x1="64" y1="192.7" x2="604" y2="192.7" stroke="#dddddd" stroke-width="1"/>
<text x="56" y="196.7" text-anchor="end" font-size="11" fill="#666666">1.0 ms</text>
<line x1="64" y1="114.2" x2="604" y2="114.2" stroke="#dddddd" stroke-width="1"/>
<text x="56" y="118.2" text-anchor="end" font-size="11" fill="#666666">10.0 ms</text>
<line x1="64" y1="35.6" x2="604" y2="35.6" stroke="#dddddd" stroke-width="1"/>
<text x="56" y="39.6" text-anchor="end" font-size="11" fill="#666666">100.0 ms</text>
<rect x="83.8" y="105.2" width="120.7" height="118.8" fill="#2ca02c" rx="1.5"/>
<text x="144.2" y="101.2" text-anchor="middle" font-size="9" fill="#222222">13.0 ms</text>
<text x="154.0" y="242.0" text-anchor="middle" font-size="11" fill="#222222">Managed</text>
<rect x="263.8" y="224.0" width="120.7" height="0.0" fill="#2ca02c" rx="1.5"/>
<text x="324.2" y="220.0" text-anchor="middle" font-size="9" fill="#222222">400 µs</text>
<text x="334.0" y="242.0" text-anchor="middle" font-size="11" fill="#222222">Native (manual)</text>
<rect x="443.8" y="56.0" width="120.7" height="168.0" fill="#2ca02c" rx="1.5"/>
<text x="504.2" y="52.0" text-anchor="middle" font-size="9" fill="#222222">55.0 ms</text>
<text x="514.0" y="242.0" text-anchor="middle" font-size="11" fill="#222222">GoRules (official)</text>
<line x1="64" y1="224" x2="604" y2="224" stroke="#222222" stroke-width="1.2"/>
<rect x="64" y="283" width="14" height="14" fill="#2ca02c" rx="2"/>
<text x="84" y="294" font-size="12" fill="#222222">Cold first call</text>
<text x="608" y="312" text-anchor="end" font-size="11" font-style="italic" fill="#666666">log scale · GoRules ~55 ms (dlopen 12 MB + UniFFI + thread-pool)</text>
</svg>