<svg xmlns="http://www.w3.org/2000/svg" width="620" height="320" viewBox="0 0 620 320" font-family="Segoe UI,Helvetica,Arial,sans-serif">
<rect width="620" height="320" fill="#ffffff"/>
<text x="310" y="26" text-anchor="middle" font-size="17" font-weight="600" fill="#222222">Cold first call (fresh process: lib load + JIT + first eval)</text>
<line x1="64" y1="266.1" x2="604" y2="266.1" stroke="#dddddd" stroke-width="1"/>
<text x="56" y="270.1" text-anchor="end" font-size="11" fill="#666666">100 µs</text>
<line x1="64" y1="190.4" x2="604" y2="190.4" stroke="#dddddd" stroke-width="1"/>
<text x="56" y="194.4" text-anchor="end" font-size="11" fill="#666666">1.0 ms</text>
<line x1="64" y1="114.7" x2="604" y2="114.7" stroke="#dddddd" stroke-width="1"/>
<text x="56" y="118.7" text-anchor="end" font-size="11" fill="#666666">10.0 ms</text>
<line x1="64" y1="39.0" x2="604" y2="39.0" stroke="#dddddd" stroke-width="1"/>
<text x="56" y="43.0" text-anchor="end" font-size="11" fill="#666666">100.0 ms</text>
<rect x="78.8" y="118.5" width="90.6" height="105.5" fill="#2ca02c" rx="1.5"/>
<text x="124.1" y="114.5" text-anchor="middle" font-size="9" fill="#222222">8.9 ms</text>
<text x="131.5" y="242.0" text-anchor="middle" font-size="11" fill="#222222">Managed</text>
<rect x="213.8" y="224.0" width="90.6" height="0.0" fill="#2ca02c" rx="1.5"/>
<text x="259.1" y="220.0" text-anchor="middle" font-size="9" fill="#222222">360 µs</text>
<text x="266.5" y="242.0" text-anchor="middle" font-size="11" fill="#222222">Native (manual)</text>
<rect x="348.9" y="56.0" width="90.6" height="168.0" fill="#2ca02c" rx="1.5"/>
<text x="394.1" y="52.0" text-anchor="middle" font-size="9" fill="#222222">59.7 ms</text>
<text x="401.5" y="242.0" text-anchor="middle" font-size="11" fill="#222222">GoRules.Zen</text>
<rect x="483.9" y="125.0" width="90.6" height="99.0" fill="#2ca02c" rx="1.5"/>
<text x="529.1" y="121.0" text-anchor="middle" font-size="9" fill="#222222">7.3 ms</text>
<text x="536.5" y="242.0" text-anchor="middle" font-size="11" fill="#222222">GoRules.ZenEngine</text>
<line x1="64" y1="224" x2="604" y2="224" stroke="#222222" stroke-width="1.2"/>
<rect x="64" y="283" width="14" height="14" fill="#2ca02c" rx="2"/>
<text x="84" y="294" font-size="12" fill="#222222">Cold first call</text>
<text x="608" y="312" text-anchor="end" font-size="11" font-style="italic" fill="#666666">log scale · GoRules.Zen ~60 ms (thread-pool); ZenEngine 7.3 ms (sync, beats managed JIT)</text>
</svg>