<svg xmlns="http://www.w3.org/2000/svg" width="980" height="430" viewBox="0 0 980 430" font-family="Segoe UI,Helvetica,Arial,sans-serif">
<rect width="980" height="430" fill="#ffffff"/>
<text x="490" y="26" text-anchor="middle" font-size="17" font-weight="600" fill="#222222">Evaluation throughput — compile-once / evaluate-many (pre-parsed context)</text>
<line x1="64" y1="351.6" x2="964" y2="351.6" stroke="#dddddd" stroke-width="1"/>
<text x="56" y="355.6" text-anchor="end" font-size="11" fill="#666666">100 ns</text>
<line x1="64" y1="247.2" x2="964" y2="247.2" stroke="#dddddd" stroke-width="1"/>
<text x="56" y="251.2" text-anchor="end" font-size="11" fill="#666666">1.0 µs</text>
<line x1="64" y1="142.9" x2="964" y2="142.9" stroke="#dddddd" stroke-width="1"/>
<text x="56" y="146.9" text-anchor="end" font-size="11" fill="#666666">10.0 µs</text>
<line x1="64" y1="38.5" x2="964" y2="38.5" stroke="#dddddd" stroke-width="1"/>
<text x="56" y="42.5" text-anchor="end" font-size="11" fill="#666666">100.0 µs</text>
<rect x="78.1" y="334.0" width="28.7" height="0.0" fill="#2ca02c" rx="1.5"/>
<text x="92.5" y="330.0" text-anchor="middle" font-size="9" fill="#222222">148 ns</text>
<rect x="111.6" y="282.8" width="28.7" height="51.2" fill="#1f77b4" rx="1.5"/>
<text x="125.9" y="278.8" text-anchor="middle" font-size="9" fill="#222222">456 ns</text>
<rect x="145.0" y="189.5" width="28.7" height="144.5" fill="#d62728" rx="1.5"/>
<text x="159.4" y="185.5" text-anchor="middle" font-size="9" fill="#222222">3.6 µs</text>
<text x="128.3" y="352.0" text-anchor="middle" font-size="11" fill="#222222">simple-few</text>
<rect x="206.7" y="300.9" width="28.7" height="33.1" fill="#2ca02c" rx="1.5"/>
<text x="221.1" y="296.9" text-anchor="middle" font-size="9" fill="#222222">306 ns</text>
<rect x="240.1" y="273.7" width="28.7" height="60.3" fill="#1f77b4" rx="1.5"/>
<text x="254.5" y="269.7" text-anchor="middle" font-size="9" fill="#222222">558 ns</text>
<rect x="273.6" y="162.8" width="28.7" height="171.2" fill="#d62728" rx="1.5"/>
<text x="287.9" y="158.8" text-anchor="middle" font-size="9" fill="#222222">6.4 µs</text>
<text x="256.9" y="352.0" text-anchor="middle" font-size="11" fill="#222222">complex-few</text>
<rect x="335.3" y="208.7" width="28.7" height="125.3" fill="#2ca02c" rx="1.5"/>
<text x="349.7" y="204.7" text-anchor="middle" font-size="9" fill="#222222">2.3 µs</text>
<rect x="368.7" y="206.1" width="28.7" height="127.9" fill="#1f77b4" rx="1.5"/>
<text x="383.1" y="202.1" text-anchor="middle" font-size="9" fill="#222222">2.5 µs</text>
<rect x="402.1" y="62.4" width="28.7" height="271.6" fill="#d62728" rx="1.5"/>
<text x="416.5" y="58.4" text-anchor="middle" font-size="9" fill="#222222">59.1 µs</text>
<text x="385.4" y="352.0" text-anchor="middle" font-size="11" fill="#222222">simple-many</text>
<rect x="463.9" y="212.3" width="28.7" height="121.7" fill="#2ca02c" rx="1.5"/>
<text x="478.2" y="208.3" text-anchor="middle" font-size="9" fill="#222222">2.2 µs</text>
<rect x="497.3" y="211.8" width="28.7" height="122.2" fill="#1f77b4" rx="1.5"/>
<text x="511.7" y="207.8" text-anchor="middle" font-size="9" fill="#222222">2.2 µs</text>
<rect x="530.7" y="56.0" width="28.7" height="278.0" fill="#d62728" rx="1.5"/>
<text x="545.1" y="52.0" text-anchor="middle" font-size="9" fill="#222222">67.9 µs</text>
<text x="514.0" y="352.0" text-anchor="middle" font-size="11" fill="#222222">complex-many</text>
<rect x="592.4" y="300.9" width="28.7" height="33.1" fill="#2ca02c" rx="1.5"/>
<text x="606.8" y="296.9" text-anchor="middle" font-size="9" fill="#222222">306 ns</text>
<rect x="625.9" y="248.6" width="28.7" height="85.4" fill="#1f77b4" rx="1.5"/>
<text x="640.2" y="244.6" text-anchor="middle" font-size="9" fill="#222222">969 ns</text>
<rect x="659.3" y="180.5" width="28.7" height="153.5" fill="#d62728" rx="1.5"/>
<text x="673.7" y="176.5" text-anchor="middle" font-size="9" fill="#222222">4.4 µs</text>
<text x="642.6" y="352.0" text-anchor="middle" font-size="11" fill="#222222">alloc-string</text>
<rect x="721.0" y="274.5" width="28.7" height="59.5" fill="#2ca02c" rx="1.5"/>
<text x="735.4" y="270.5" text-anchor="middle" font-size="9" fill="#222222">548 ns</text>
<rect x="754.4" y="218.8" width="28.7" height="115.2" fill="#1f77b4" rx="1.5"/>
<text x="768.8" y="214.8" text-anchor="middle" font-size="9" fill="#222222">1.9 µs</text>
<rect x="787.9" y="143.8" width="28.7" height="190.2" fill="#d62728" rx="1.5"/>
<text x="802.2" y="139.8" text-anchor="middle" font-size="9" fill="#222222">9.8 µs</text>
<text x="771.1" y="352.0" text-anchor="middle" font-size="11" fill="#222222">alloc-object</text>
<rect x="849.6" y="217.1" width="28.7" height="116.9" fill="#2ca02c" rx="1.5"/>
<text x="863.9" y="213.1" text-anchor="middle" font-size="9" fill="#222222">1.9 µs</text>
<rect x="883.0" y="172.3" width="28.7" height="161.7" fill="#1f77b4" rx="1.5"/>
<text x="897.4" y="168.3" text-anchor="middle" font-size="9" fill="#222222">5.2 µs</text>
<rect x="916.4" y="100.6" width="28.7" height="233.4" fill="#d62728" rx="1.5"/>
<text x="930.8" y="96.6" text-anchor="middle" font-size="9" fill="#222222">25.4 µs</text>
<text x="899.7" y="352.0" text-anchor="middle" font-size="11" fill="#222222">alloc-array</text>
<line x1="64" y1="334" x2="964" y2="334" stroke="#222222" stroke-width="1.2"/>
<rect x="64" y="393" width="14" height="14" fill="#2ca02c" rx="2"/>
<text x="84" y="404" font-size="12" fill="#222222">Managed (pure)</text>
<rect x="212" y="393" width="14" height="14" fill="#1f77b4" rx="2"/>
<text x="232" y="404" font-size="12" fill="#222222">Native manual (pure)</text>
<rect x="402" y="393" width="14" height="14" fill="#d62728" rx="2"/>
<text x="422" y="404" font-size="12" fill="#222222">GoRules.Zen</text>
<text x="968" y="422" text-anchor="end" font-size="11" font-style="italic" fill="#666666">log scale · lower is better · left 4 = scalar, right 3 = allocating</text>
</svg>