<svg xmlns="http://www.w3.org/2000/svg" width="980" height="430" viewBox="0 0 980 430" font-family="Segoe UI,Helvetica,Arial,sans-serif">
<rect width="980" height="430" fill="#ffffff"/>
<text x="490" y="26" text-anchor="middle" font-size="17" font-weight="600" fill="#222222">Evaluation throughput — compile-once / evaluate-many (pre-parsed context)</text>
<line x1="64" y1="346.5" x2="964" y2="346.5" stroke="#dddddd" stroke-width="1"/>
<text x="56" y="350.5" text-anchor="end" font-size="11" fill="#666666">100 ns</text>
<line x1="64" y1="242.6" x2="964" y2="242.6" stroke="#dddddd" stroke-width="1"/>
<text x="56" y="246.6" text-anchor="end" font-size="11" fill="#666666">1.0 µs</text>
<line x1="64" y1="138.6" x2="964" y2="138.6" stroke="#dddddd" stroke-width="1"/>
<text x="56" y="142.6" text-anchor="end" font-size="11" fill="#666666">10.0 µs</text>
<line x1="64" y1="34.7" x2="964" y2="34.7" stroke="#dddddd" stroke-width="1"/>
<text x="56" y="38.7" text-anchor="end" font-size="11" fill="#666666">100.0 µs</text>
<rect x="78.1" y="334.0" width="21.6" height="0.0" fill="#2ca02c" rx="1.5"/>
<text x="88.9" y="330.0" text-anchor="middle" font-size="9" fill="#222222">132 ns</text>
<rect x="103.2" y="305.6" width="21.6" height="28.4" fill="#1f77b4" rx="1.5"/>
<text x="114.0" y="301.6" text-anchor="middle" font-size="9" fill="#222222">248 ns</text>
<rect x="128.3" y="183.3" width="21.6" height="150.7" fill="#d62728" rx="1.5"/>
<text x="139.1" y="179.3" text-anchor="middle" font-size="9" fill="#222222">3.7 µs</text>
<rect x="153.4" y="234.6" width="21.6" height="99.4" fill="#ff7f0e" rx="1.5"/>
<text x="164.1" y="230.6" text-anchor="middle" font-size="9" fill="#222222">1.2 µs</text>
<text x="128.3" y="352.0" text-anchor="middle" font-size="11" fill="#222222">simple-few</text>
<rect x="206.7" y="299.3" width="21.6" height="34.7" fill="#2ca02c" rx="1.5"/>
<text x="217.5" y="295.3" text-anchor="middle" font-size="9" fill="#222222">285 ns</text>
<rect x="231.8" y="292.1" width="21.6" height="41.9" fill="#1f77b4" rx="1.5"/>
<text x="242.6" y="288.1" text-anchor="middle" font-size="9" fill="#222222">334 ns</text>
<rect x="256.9" y="157.6" width="21.6" height="176.4" fill="#d62728" rx="1.5"/>
<text x="267.6" y="153.6" text-anchor="middle" font-size="9" fill="#222222">6.6 µs</text>
<rect x="281.9" y="220.5" width="21.6" height="113.5" fill="#ff7f0e" rx="1.5"/>
<text x="292.7" y="216.5" text-anchor="middle" font-size="9" fill="#222222">1.6 µs</text>
<text x="256.9" y="352.0" text-anchor="middle" font-size="11" fill="#222222">complex-few</text>
<rect x="335.3" y="208.6" width="21.6" height="125.4" fill="#2ca02c" rx="1.5"/>
<text x="346.1" y="204.6" text-anchor="middle" font-size="9" fill="#222222">2.1 µs</text>
<rect x="360.4" y="209.7" width="21.6" height="124.3" fill="#1f77b4" rx="1.5"/>
<text x="371.1" y="205.7" text-anchor="middle" font-size="9" fill="#222222">2.1 µs</text>
<rect x="385.4" y="58.4" width="21.6" height="275.6" fill="#d62728" rx="1.5"/>
<text x="396.2" y="54.4" text-anchor="middle" font-size="9" fill="#222222">59.2 µs</text>
<rect x="410.5" y="144.2" width="21.6" height="189.8" fill="#ff7f0e" rx="1.5"/>
<text x="421.3" y="140.2" text-anchor="middle" font-size="9" fill="#222222">8.8 µs</text>
<text x="385.4" y="352.0" text-anchor="middle" font-size="11" fill="#222222">simple-many</text>
<rect x="463.9" y="210.6" width="21.6" height="123.4" fill="#2ca02c" rx="1.5"/>
<text x="474.6" y="206.6" text-anchor="middle" font-size="9" fill="#222222">2.0 µs</text>
<rect x="488.9" y="216.4" width="21.6" height="117.6" fill="#1f77b4" rx="1.5"/>
<text x="499.7" y="212.4" text-anchor="middle" font-size="9" fill="#222222">1.8 µs</text>
<rect x="514.0" y="56.0" width="21.6" height="278.0" fill="#d62728" rx="1.5"/>
<text x="524.8" y="52.0" text-anchor="middle" font-size="9" fill="#222222">62.4 µs</text>
<rect x="539.1" y="166.5" width="21.6" height="167.5" fill="#ff7f0e" rx="1.5"/>
<text x="549.9" y="162.5" text-anchor="middle" font-size="9" fill="#222222">5.4 µs</text>
<text x="514.0" y="352.0" text-anchor="middle" font-size="11" fill="#222222">complex-many</text>
<rect x="592.4" y="296.6" width="21.6" height="37.4" fill="#2ca02c" rx="1.5"/>
<text x="603.2" y="292.6" text-anchor="middle" font-size="9" fill="#222222">302 ns</text>
<rect x="617.5" y="259.8" width="21.6" height="74.2" fill="#1f77b4" rx="1.5"/>
<text x="628.3" y="255.8" text-anchor="middle" font-size="9" fill="#222222">682 ns</text>
<rect x="642.6" y="172.3" width="21.6" height="161.7" fill="#d62728" rx="1.5"/>
<text x="653.4" y="168.3" text-anchor="middle" font-size="9" fill="#222222">4.7 µs</text>
<rect x="667.6" y="228.7" width="21.6" height="105.3" fill="#ff7f0e" rx="1.5"/>
<text x="678.4" y="224.7" text-anchor="middle" font-size="9" fill="#222222">1.4 µs</text>
<text x="642.6" y="352.0" text-anchor="middle" font-size="11" fill="#222222">alloc-string</text>
<rect x="721.0" y="265.2" width="21.6" height="68.8" fill="#2ca02c" rx="1.5"/>
<text x="731.8" y="261.2" text-anchor="middle" font-size="9" fill="#222222">606 ns</text>
<rect x="746.1" y="214.7" width="21.6" height="119.3" fill="#1f77b4" rx="1.5"/>
<text x="756.9" y="210.7" text-anchor="middle" font-size="9" fill="#222222">1.9 µs</text>
<rect x="771.1" y="80.7" width="21.6" height="253.3" fill="#d62728" rx="1.5"/>
<text x="781.9" y="76.7" text-anchor="middle" font-size="9" fill="#222222">36.1 µs</text>
<rect x="796.2" y="182.9" width="21.6" height="151.1" fill="#ff7f0e" rx="1.5"/>
<text x="807.0" y="178.9" text-anchor="middle" font-size="9" fill="#222222">3.8 µs</text>
<text x="771.1" y="352.0" text-anchor="middle" font-size="11" fill="#222222">alloc-object</text>
<rect x="849.6" y="211.8" width="21.6" height="122.2" fill="#2ca02c" rx="1.5"/>
<text x="860.4" y="207.8" text-anchor="middle" font-size="9" fill="#222222">2.0 µs</text>
<rect x="874.6" y="180.0" width="21.6" height="154.0" fill="#1f77b4" rx="1.5"/>
<text x="885.4" y="176.0" text-anchor="middle" font-size="9" fill="#222222">4.0 µs</text>
<rect x="899.7" y="103.4" width="21.6" height="230.6" fill="#d62728" rx="1.5"/>
<text x="910.5" y="99.4" text-anchor="middle" font-size="9" fill="#222222">21.8 µs</text>
<rect x="924.8" y="159.6" width="21.6" height="174.4" fill="#ff7f0e" rx="1.5"/>
<text x="935.6" y="155.6" text-anchor="middle" font-size="9" fill="#222222">6.3 µs</text>
<text x="899.7" y="352.0" text-anchor="middle" font-size="11" fill="#222222">alloc-array</text>
<line x1="64" y1="334" x2="964" y2="334" stroke="#222222" stroke-width="1.2"/>
<rect x="64" y="393" width="14" height="14" fill="#2ca02c" rx="2"/>
<text x="84" y="404" font-size="12" fill="#222222">Managed (pure)</text>
<rect x="212" y="393" width="14" height="14" fill="#1f77b4" rx="2"/>
<text x="232" y="404" font-size="12" fill="#222222">Native manual (pure)</text>
<rect x="402" y="393" width="14" height="14" fill="#d62728" rx="2"/>
<text x="422" y="404" font-size="12" fill="#222222">GoRules.Zen</text>
<rect x="529" y="393" width="14" height="14" fill="#ff7f0e" rx="2"/>
<text x="549" y="404" font-size="12" fill="#222222">GoRules.ZenEngine</text>
<text x="968" y="422" text-anchor="end" font-size="11" font-style="italic" fill="#666666">log scale · lower is better · ZenEngine (compiled+sync) ~3-12x faster than GoRules.Zen, still trails managed</text>
</svg>