<svg xmlns="http://www.w3.org/2000/svg" width="980" height="430" viewBox="0 0 980 430" font-family="Segoe UI,Helvetica,Arial,sans-serif">
<rect width="980" height="430" fill="#ffffff"/>
<text x="490" y="26" text-anchor="middle" font-size="17" font-weight="600" fill="#222222">Evaluation throughput — JSON context per call (parse + eval)</text>
<line x1="64" y1="476.1" x2="964" y2="476.1" stroke="#dddddd" stroke-width="1"/>
<text x="56" y="480.1" text-anchor="end" font-size="11" fill="#666666">100 ns</text>
<line x1="64" y1="329.1" x2="964" y2="329.1" stroke="#dddddd" stroke-width="1"/>
<text x="56" y="333.1" text-anchor="end" font-size="11" fill="#666666">1.0 µs</text>
<line x1="64" y1="182.0" x2="964" y2="182.0" stroke="#dddddd" stroke-width="1"/>
<text x="56" y="186.0" text-anchor="end" font-size="11" fill="#666666">10.0 µs</text>
<line x1="64" y1="35.0" x2="964" y2="35.0" stroke="#dddddd" stroke-width="1"/>
<text x="56" y="39.0" text-anchor="end" font-size="11" fill="#666666">100.0 µs</text>
<rect x="78.1" y="324.5" width="28.7" height="9.5" fill="#2ca02c" rx="1.5"/>
<text x="92.5" y="320.5" text-anchor="middle" font-size="9" fill="#222222">1.1 µs</text>
<rect x="111.6" y="334.0" width="28.7" height="0.0" fill="#1f77b4" rx="1.5"/>
<text x="125.9" y="330.0" text-anchor="middle" font-size="9" fill="#222222">926 ns</text>
<rect x="145.0" y="235.5" width="28.7" height="98.5" fill="#d62728" rx="1.5"/>
<text x="159.4" y="231.5" text-anchor="middle" font-size="9" fill="#222222">4.3 µs</text>
<text x="128.3" y="352.0" text-anchor="middle" font-size="11" fill="#222222">simple-few</text>
<rect x="206.7" y="298.1" width="28.7" height="35.9" fill="#2ca02c" rx="1.5"/>
<text x="221.1" y="294.1" text-anchor="middle" font-size="9" fill="#222222">1.6 µs</text>
<rect x="240.1" y="313.3" width="28.7" height="20.7" fill="#1f77b4" rx="1.5"/>
<text x="254.5" y="309.3" text-anchor="middle" font-size="9" fill="#222222">1.3 µs</text>
<rect x="273.6" y="209.0" width="28.7" height="125.0" fill="#d62728" rx="1.5"/>
<text x="287.9" y="205.0" text-anchor="middle" font-size="9" fill="#222222">6.6 µs</text>
<text x="256.9" y="352.0" text-anchor="middle" font-size="11" fill="#222222">complex-few</text>
<rect x="335.3" y="179.0" width="28.7" height="155.0" fill="#2ca02c" rx="1.5"/>
<text x="349.7" y="175.0" text-anchor="middle" font-size="9" fill="#222222">10.5 µs</text>
<rect x="368.7" y="177.4" width="28.7" height="156.6" fill="#1f77b4" rx="1.5"/>
<text x="383.1" y="173.4" text-anchor="middle" font-size="9" fill="#222222">10.8 µs</text>
<rect x="402.1" y="56.0" width="28.7" height="278.0" fill="#d62728" rx="1.5"/>
<text x="416.5" y="52.0" text-anchor="middle" font-size="9" fill="#222222">72.0 µs</text>
<text x="385.4" y="352.0" text-anchor="middle" font-size="11" fill="#222222">simple-many</text>
<rect x="463.9" y="212.0" width="28.7" height="122.0" fill="#2ca02c" rx="1.5"/>
<text x="478.2" y="208.0" text-anchor="middle" font-size="9" fill="#222222">6.3 µs</text>
<rect x="497.3" y="221.8" width="28.7" height="112.2" fill="#1f77b4" rx="1.5"/>
<text x="511.7" y="217.8" text-anchor="middle" font-size="9" fill="#222222">5.4 µs</text>
<rect x="530.7" y="56.2" width="28.7" height="277.8" fill="#d62728" rx="1.5"/>
<text x="545.1" y="52.2" text-anchor="middle" font-size="9" fill="#222222">71.7 µs</text>
<text x="514.0" y="352.0" text-anchor="middle" font-size="11" fill="#222222">complex-many</text>
<rect x="592.4" y="324.5" width="28.7" height="9.5" fill="#2ca02c" rx="1.5"/>
<text x="606.8" y="320.5" text-anchor="middle" font-size="9" fill="#222222">1.1 µs</text>
<rect x="625.9" y="304.8" width="28.7" height="29.2" fill="#1f77b4" rx="1.5"/>
<text x="640.2" y="300.8" text-anchor="middle" font-size="9" fill="#222222">1.5 µs</text>
<rect x="659.3" y="220.7" width="28.7" height="113.3" fill="#d62728" rx="1.5"/>
<text x="673.7" y="216.7" text-anchor="middle" font-size="9" fill="#222222">5.5 µs</text>
<text x="642.6" y="352.0" text-anchor="middle" font-size="11" fill="#222222">alloc-string</text>
<rect x="721.0" y="301.6" width="28.7" height="32.4" fill="#2ca02c" rx="1.5"/>
<text x="735.4" y="297.6" text-anchor="middle" font-size="9" fill="#222222">1.5 µs</text>
<rect x="754.4" y="276.1" width="28.7" height="57.9" fill="#1f77b4" rx="1.5"/>
<text x="768.8" y="272.1" text-anchor="middle" font-size="9" fill="#222222">2.3 µs</text>
<rect x="787.9" y="117.6" width="28.7" height="216.4" fill="#d62728" rx="1.5"/>
<text x="802.2" y="113.6" text-anchor="middle" font-size="9" fill="#222222">27.4 µs</text>
<text x="771.1" y="352.0" text-anchor="middle" font-size="11" fill="#222222">alloc-object</text>
<rect x="849.6" y="230.6" width="28.7" height="103.4" fill="#2ca02c" rx="1.5"/>
<text x="863.9" y="226.6" text-anchor="middle" font-size="9" fill="#222222">4.7 µs</text>
<rect x="883.0" y="213.3" width="28.7" height="120.7" fill="#1f77b4" rx="1.5"/>
<text x="897.4" y="209.3" text-anchor="middle" font-size="9" fill="#222222">6.1 µs</text>
<rect x="916.4" y="141.4" width="28.7" height="192.6" fill="#d62728" rx="1.5"/>
<text x="930.8" y="137.4" text-anchor="middle" font-size="9" fill="#222222">18.9 µs</text>
<text x="899.7" y="352.0" text-anchor="middle" font-size="11" fill="#222222">alloc-array</text>
<line x1="64" y1="334" x2="964" y2="334" stroke="#222222" stroke-width="1.2"/>
<rect x="64" y="393" width="14" height="14" fill="#2ca02c" rx="2"/>
<text x="84" y="404" font-size="12" fill="#222222">Managed (JSON)</text>
<rect x="212" y="393" width="14" height="14" fill="#1f77b4" rx="2"/>
<text x="232" y="404" font-size="12" fill="#222222">Native manual (JSON)</text>
<rect x="402" y="393" width="14" height="14" fill="#d62728" rx="2"/>
<text x="422" y="404" font-size="12" fill="#222222">GoRules.Zen</text>
<text x="968" y="422" text-anchor="end" font-size="11" font-style="italic" fill="#666666">log scale · lower is better · left 4 = scalar, right 3 = allocating</text>
</svg>