<svg xmlns="http://www.w3.org/2000/svg" width="620" height="320" viewBox="0 0 620 320" font-family="Segoe UI,Helvetica,Arial,sans-serif">
<rect width="620" height="320" fill="#ffffff"/>
<text x="310" y="26" text-anchor="middle" font-size="17" font-weight="600" fill="#222222">Binary footprint — what you ship per engine</text>
<line x1="64" y1="260.4" x2="604" y2="260.4" stroke="#dddddd" stroke-width="1"/>
<text x="56" y="264.4" text-anchor="end" font-size="11" fill="#666666">10 KB</text>
<line x1="64" y1="198.2" x2="604" y2="198.2" stroke="#dddddd" stroke-width="1"/>
<text x="56" y="202.2" text-anchor="end" font-size="11" fill="#666666">100 KB</text>
<line x1="64" y1="135.9" x2="604" y2="135.9" stroke="#dddddd" stroke-width="1"/>
<text x="56" y="139.9" text-anchor="end" font-size="11" fill="#666666">1000 KB</text>
<line x1="64" y1="73.7" x2="604" y2="73.7" stroke="#dddddd" stroke-width="1"/>
<text x="56" y="77.7" text-anchor="end" font-size="11" fill="#666666">9.8 MB</text>
<line x1="64" y1="11.4" x2="604" y2="11.4" stroke="#dddddd" stroke-width="1"/>
<text x="56" y="15.4" text-anchor="end" font-size="11" fill="#666666">97.7 MB</text>
<rect x="78.8" y="224.0" width="90.6" height="0.0" fill="#2ca02c" rx="1.5"/>
<text x="124.1" y="220.0" text-anchor="middle" font-size="9" fill="#222222">38 KB</text>
<text x="131.5" y="242.0" text-anchor="middle" font-size="11" fill="#222222">Managed</text>
<rect x="213.8" y="151.8" width="90.6" height="72.2" fill="#2ca02c" rx="1.5"/>
<text x="259.1" y="147.8" text-anchor="middle" font-size="9" fill="#222222">557 KB</text>
<text x="266.5" y="242.0" text-anchor="middle" font-size="11" fill="#222222">Native (manual)</text>
<rect x="348.9" y="56.0" width="90.6" height="168.0" fill="#2ca02c" rx="1.5"/>
<text x="394.1" y="52.0" text-anchor="middle" font-size="9" fill="#222222">18.8 MB</text>
<text x="401.5" y="242.0" text-anchor="middle" font-size="11" fill="#222222">GoRules.Zen</text>
<rect x="483.9" y="67.6" width="90.6" height="156.4" fill="#2ca02c" rx="1.5"/>
<text x="529.1" y="63.6" text-anchor="middle" font-size="9" fill="#222222">12.2 MB</text>
<text x="536.5" y="242.0" text-anchor="middle" font-size="11" fill="#222222">GoRules.ZenEngine</text>
<line x1="64" y1="224" x2="604" y2="224" stroke="#222222" stroke-width="1.2"/>
<rect x="64" y="283" width="14" height="14" fill="#2ca02c" rx="2"/>
<text x="84" y="294" font-size="12" fill="#222222">Footprint shipped</text>
<text x="608" y="312" text-anchor="end" font-size="11" font-style="italic" fill="#666666">log scale · GoRules.Zen ~19 MB (libzen_ffi + libcapstone); ZenEngine ~12.5 MB (no capstone)</text>
</svg>