<svg xmlns="http://www.w3.org/2000/svg" width="620" height="320" viewBox="0 0 620 320" font-family="Segoe UI,Helvetica,Arial,sans-serif">
<rect width="620" height="320" fill="#ffffff"/>
<text x="310" y="26" text-anchor="middle" font-size="17" font-weight="600" fill="#222222">Binary footprint — what you ship per engine</text>
<line x1="64" y1="257.4" x2="604" y2="257.4" stroke="#dddddd" stroke-width="1"/>
<text x="56" y="261.4" text-anchor="end" font-size="11" fill="#666666">10 KB</text>
<line x1="64" y1="196.0" x2="604" y2="196.0" stroke="#dddddd" stroke-width="1"/>
<text x="56" y="200.0" text-anchor="end" font-size="11" fill="#666666">100 KB</text>
<line x1="64" y1="134.7" x2="604" y2="134.7" stroke="#dddddd" stroke-width="1"/>
<text x="56" y="138.7" text-anchor="end" font-size="11" fill="#666666">1000 KB</text>
<line x1="64" y1="73.4" x2="604" y2="73.4" stroke="#dddddd" stroke-width="1"/>
<text x="56" y="77.4" text-anchor="end" font-size="11" fill="#666666">9.8 MB</text>
<line x1="64" y1="12.1" x2="604" y2="12.1" stroke="#dddddd" stroke-width="1"/>
<text x="56" y="16.1" text-anchor="end" font-size="11" fill="#666666">97.7 MB</text>
<rect x="83.8" y="224.0" width="120.7" height="0.0" fill="#2ca02c" rx="1.5"/>
<text x="144.2" y="220.0" text-anchor="middle" font-size="9" fill="#222222">35 KB</text>
<text x="154.0" y="242.0" text-anchor="middle" font-size="11" fill="#222222">Managed</text>
<rect x="263.8" y="148.7" width="120.7" height="75.3" fill="#2ca02c" rx="1.5"/>
<text x="324.2" y="144.7" text-anchor="middle" font-size="9" fill="#222222">591 KB</text>
<text x="334.0" y="242.0" text-anchor="middle" font-size="11" fill="#222222">Native (manual)</text>
<rect x="443.8" y="56.0" width="120.7" height="168.0" fill="#2ca02c" rx="1.5"/>
<text x="504.2" y="52.0" text-anchor="middle" font-size="9" fill="#222222">18.8 MB</text>
<text x="514.0" y="242.0" text-anchor="middle" font-size="11" fill="#222222">GoRules (official)</text>
<line x1="64" y1="224" x2="604" y2="224" stroke="#222222" stroke-width="1.2"/>
<rect x="64" y="283" width="14" height="14" fill="#2ca02c" rx="2"/>
<text x="84" y="294" font-size="12" fill="#222222">Footprint shipped</text>
<text x="608" y="312" text-anchor="end" font-size="11" font-style="italic" fill="#666666">log scale · GoRules ~19 MB (libzen_ffi + libcapstone) vs managed 35 KB</text>
</svg>