<svg xmlns="http://www.w3.org/2000/svg" width="980" height="430" viewBox="0 0 980 430" font-family="Segoe UI,Helvetica,Arial,sans-serif">
<rect width="980" height="430" fill="#ffffff"/>
<text x="490" y="26" text-anchor="middle" font-size="17" font-weight="600" fill="#222222">Heavy load — JSON per call: native still leads on sum-1k after ZenJson opt (84→61 µs)</text>
<line x1="64" y1="431.9" x2="964" y2="431.9" stroke="#dddddd" stroke-width="1"/>
<text x="56" y="435.9" text-anchor="end" font-size="11" fill="#666666">10.0 µs</text>
<line x1="64" y1="201.3" x2="964" y2="201.3" stroke="#dddddd" stroke-width="1"/>
<text x="56" y="205.3" text-anchor="end" font-size="11" fill="#666666">100.0 µs</text>
<line x1="64" y1="-29.3" x2="964" y2="-29.3" stroke="#dddddd" stroke-width="1"/>
<text x="56" y="-25.3" text-anchor="end" font-size="11" fill="#666666">1.0 ms</text>
<rect x="83.8" y="251.6" width="40.2" height="82.4" fill="#2ca02c" rx="1.5"/>
<text x="103.9" y="247.6" text-anchor="middle" font-size="9" fill="#222222">60.5 µs</text>
<rect x="130.6" y="334.0" width="40.2" height="0.0" fill="#1f77b4" rx="1.5"/>
<text x="150.7" y="330.0" text-anchor="middle" font-size="9" fill="#222222">26.6 µs</text>
<rect x="177.4" y="139.4" width="40.2" height="194.6" fill="#d62728" rx="1.5"/>
<text x="197.5" y="135.4" text-anchor="middle" font-size="9" fill="#222222">185.4 µs</text>
<text x="154.0" y="352.0" text-anchor="middle" font-size="11" fill="#222222">sum-1k</text>
<rect x="263.8" y="297.9" width="40.2" height="36.1" fill="#2ca02c" rx="1.5"/>
<text x="283.9" y="293.9" text-anchor="middle" font-size="9" fill="#222222">38.1 µs</text>
<rect x="310.6" y="256.3" width="40.2" height="77.7" fill="#1f77b4" rx="1.5"/>
<text x="330.7" y="252.3" text-anchor="middle" font-size="9" fill="#222222">57.8 µs</text>
<rect x="357.4" y="164.0" width="40.2" height="170.0" fill="#d62728" rx="1.5"/>
<text x="377.5" y="160.0" text-anchor="middle" font-size="9" fill="#222222">145.2 µs</text>
<text x="334.0" y="352.0" text-anchor="middle" font-size="11" fill="#222222">arith-200</text>
<rect x="443.8" y="186.3" width="40.2" height="147.7" fill="#2ca02c" rx="1.5"/>
<text x="463.9" y="182.3" text-anchor="middle" font-size="9" fill="#222222">116.2 µs</text>
<rect x="490.6" y="174.1" width="40.2" height="159.9" fill="#1f77b4" rx="1.5"/>
<text x="510.7" y="170.1" text-anchor="middle" font-size="9" fill="#222222">131.2 µs</text>
<rect x="537.4" y="87.2" width="40.2" height="246.8" fill="#d62728" rx="1.5"/>
<text x="557.5" y="83.2" text-anchor="middle" font-size="9" fill="#222222">312.5 µs</text>
<text x="514.0" y="352.0" text-anchor="middle" font-size="11" fill="#222222">filter-1k</text>
<rect x="623.8" y="161.8" width="40.2" height="172.2" fill="#2ca02c" rx="1.5"/>
<text x="643.9" y="157.8" text-anchor="middle" font-size="9" fill="#222222">148.3 µs</text>
<rect x="670.6" y="121.4" width="40.2" height="212.6" fill="#1f77b4" rx="1.5"/>
<text x="690.7" y="117.4" text-anchor="middle" font-size="9" fill="#222222">222.0 µs</text>
<rect x="717.4" y="56.0" width="40.2" height="278.0" fill="#d62728" rx="1.5"/>
<text x="737.5" y="52.0" text-anchor="middle" font-size="9" fill="#222222">426.5 µs</text>
<text x="694.0" y="352.0" text-anchor="middle" font-size="11" fill="#222222">map-1k</text>
<rect x="803.8" y="246.3" width="40.2" height="87.7" fill="#2ca02c" rx="1.5"/>
<text x="823.9" y="242.3" text-anchor="middle" font-size="9" fill="#222222">63.8 µs</text>
<rect x="850.6" y="171.6" width="40.2" height="162.4" fill="#1f77b4" rx="1.5"/>
<text x="870.7" y="167.6" text-anchor="middle" font-size="9" fill="#222222">134.5 µs</text>
<rect x="897.4" y="91.3" width="40.2" height="242.7" fill="#d62728" rx="1.5"/>
<text x="917.5" y="87.3" text-anchor="middle" font-size="9" fill="#222222">299.8 µs</text>
<text x="874.0" y="352.0" text-anchor="middle" font-size="11" fill="#222222">map-obj-100</text>
<line x1="64" y1="334" x2="964" y2="334" stroke="#222222" stroke-width="1.2"/>
<rect x="64" y="393" width="14" height="14" fill="#2ca02c" rx="2"/>
<text x="84" y="404" font-size="12" fill="#222222">Managed (JSON)</text>
<rect x="212" y="393" width="14" height="14" fill="#1f77b4" rx="2"/>
<text x="232" y="404" font-size="12" fill="#222222">Native (JSON)</text>
<rect x="353" y="393" width="14" height="14" fill="#d62728" rx="2"/>
<text x="373" y="404" font-size="12" fill="#222222">GoRules</text>
<text x="968" y="422" text-anchor="end" font-size="11" font-style="italic" fill="#666666">log scale · lower is better · serde parses 1000-element arrays faster than managed</text>
</svg>