<svg xmlns="http://www.w3.org/2000/svg" width="980" height="430" viewBox="0 0 980 430" font-family="Segoe UI,Helvetica,Arial,sans-serif">
<rect width="980" height="430" fill="#ffffff"/>
<text x="490" y="26" text-anchor="middle" font-size="17" font-weight="600" fill="#222222">Heavy load — JSON per call: native leads when allocation stays native + scalar returns</text>
<line x1="64" y1="419.7" x2="964" y2="419.7" stroke="#dddddd" stroke-width="1"/>
<text x="56" y="423.7" text-anchor="end" font-size="11" fill="#666666">10.0 µs</text>
<line x1="64" y1="195.3" x2="964" y2="195.3" stroke="#dddddd" stroke-width="1"/>
<text x="56" y="199.3" text-anchor="end" font-size="11" fill="#666666">100.0 µs</text>
<line x1="64" y1="-29.1" x2="964" y2="-29.1" stroke="#dddddd" stroke-width="1"/>
<text x="56" y="-25.1" text-anchor="end" font-size="11" fill="#666666">1.0 ms</text>
<rect x="80.5" y="261.0" width="25.2" height="73.0" fill="#2ca02c" rx="1.5"/>
<text x="93.1" y="257.0" text-anchor="middle" font-size="9" fill="#222222">51.0 µs</text>
<rect x="109.8" y="334.0" width="25.2" height="0.0" fill="#1f77b4" rx="1.5"/>
<text x="122.3" y="330.0" text-anchor="middle" font-size="9" fill="#222222">24.1 µs</text>
<rect x="139.0" y="139.5" width="25.2" height="194.5" fill="#d62728" rx="1.5"/>
<text x="151.6" y="135.5" text-anchor="middle" font-size="9" fill="#222222">177.2 µs</text>
<rect x="168.2" y="263.2" width="25.2" height="70.8" fill="#ff7f0e" rx="1.5"/>
<text x="180.8" y="259.2" text-anchor="middle" font-size="9" fill="#222222">49.8 µs</text>
<text x="139.0" y="352.0" text-anchor="middle" font-size="11" fill="#222222">sum-1k</text>
<rect x="230.5" y="180.4" width="25.2" height="153.6" fill="#2ca02c" rx="1.5"/>
<text x="243.1" y="176.4" text-anchor="middle" font-size="9" fill="#222222">116.5 µs</text>
<rect x="259.8" y="205.7" width="25.2" height="128.3" fill="#1f77b4" rx="1.5"/>
<text x="272.3" y="201.7" text-anchor="middle" font-size="9" fill="#222222">89.9 µs</text>
<rect x="289.0" y="106.8" width="25.2" height="227.2" fill="#d62728" rx="1.5"/>
<text x="301.6" y="102.8" text-anchor="middle" font-size="9" fill="#222222">247.9 µs</text>
<rect x="318.2" y="160.9" width="25.2" height="173.1" fill="#ff7f0e" rx="1.5"/>
<text x="330.8" y="156.9" text-anchor="middle" font-size="9" fill="#222222">142.4 µs</text>
<text x="289.0" y="352.0" text-anchor="middle" font-size="11" fill="#222222">sum-map-1k</text>
<rect x="380.5" y="314.1" width="25.2" height="19.9" fill="#2ca02c" rx="1.5"/>
<text x="393.1" y="310.1" text-anchor="middle" font-size="9" fill="#222222">29.5 µs</text>
<rect x="409.8" y="257.1" width="25.2" height="76.9" fill="#1f77b4" rx="1.5"/>
<text x="422.3" y="253.1" text-anchor="middle" font-size="9" fill="#222222">53.0 µs</text>
<rect x="439.0" y="161.3" width="25.2" height="172.7" fill="#d62728" rx="1.5"/>
<text x="451.6" y="157.3" text-anchor="middle" font-size="9" fill="#222222">141.7 µs</text>
<rect x="468.2" y="303.8" width="25.2" height="30.2" fill="#ff7f0e" rx="1.5"/>
<text x="480.8" y="299.8" text-anchor="middle" font-size="9" fill="#222222">32.8 µs</text>
<text x="439.0" y="352.0" text-anchor="middle" font-size="11" fill="#222222">arith-200</text>
<rect x="530.5" y="193.9" width="25.2" height="140.1" fill="#2ca02c" rx="1.5"/>
<text x="543.1" y="189.9" text-anchor="middle" font-size="9" fill="#222222">101.5 µs</text>
<rect x="559.8" y="180.1" width="25.2" height="153.9" fill="#1f77b4" rx="1.5"/>
<text x="572.3" y="176.1" text-anchor="middle" font-size="9" fill="#222222">116.8 µs</text>
<rect x="589.0" y="86.7" width="25.2" height="247.3" fill="#d62728" rx="1.5"/>
<text x="601.6" y="82.7" text-anchor="middle" font-size="9" fill="#222222">304.7 µs</text>
<rect x="618.2" y="152.1" width="25.2" height="181.9" fill="#ff7f0e" rx="1.5"/>
<text x="630.8" y="148.1" text-anchor="middle" font-size="9" fill="#222222">155.8 µs</text>
<text x="589.0" y="352.0" text-anchor="middle" font-size="11" fill="#222222">filter-1k</text>
<rect x="680.5" y="168.8" width="25.2" height="165.2" fill="#2ca02c" rx="1.5"/>
<text x="693.1" y="164.8" text-anchor="middle" font-size="9" fill="#222222">131.3 µs</text>
<rect x="709.8" y="126.7" width="25.2" height="207.3" fill="#1f77b4" rx="1.5"/>
<text x="722.3" y="122.7" text-anchor="middle" font-size="9" fill="#222222">202.2 µs</text>
<rect x="739.0" y="56.0" width="25.2" height="278.0" fill="#d62728" rx="1.5"/>
<text x="751.6" y="52.0" text-anchor="middle" font-size="9" fill="#222222">417.6 µs</text>
<rect x="768.2" y="101.7" width="25.2" height="232.3" fill="#ff7f0e" rx="1.5"/>
<text x="780.8" y="97.7" text-anchor="middle" font-size="9" fill="#222222">261.4 µs</text>
<text x="739.0" y="352.0" text-anchor="middle" font-size="11" fill="#222222">map-1k</text>
<rect x="830.5" y="250.6" width="25.2" height="83.4" fill="#2ca02c" rx="1.5"/>
<text x="843.1" y="246.6" text-anchor="middle" font-size="9" fill="#222222">56.7 µs</text>
<rect x="859.8" y="179.0" width="25.2" height="155.0" fill="#1f77b4" rx="1.5"/>
<text x="872.3" y="175.0" text-anchor="middle" font-size="9" fill="#222222">118.2 µs</text>
<rect x="889.0" y="95.6" width="25.2" height="238.4" fill="#d62728" rx="1.5"/>
<text x="901.6" y="91.6" text-anchor="middle" font-size="9" fill="#222222">278.0 µs</text>
<rect x="918.2" y="156.5" width="25.2" height="177.5" fill="#ff7f0e" rx="1.5"/>
<text x="930.8" y="152.5" text-anchor="middle" font-size="9" fill="#222222">148.9 µs</text>
<text x="889.0" y="352.0" text-anchor="middle" font-size="11" fill="#222222">map-obj-100</text>
<line x1="64" y1="334" x2="964" y2="334" stroke="#222222" stroke-width="1.2"/>
<rect x="64" y="393" width="14" height="14" fill="#2ca02c" rx="2"/>
<text x="84" y="404" font-size="12" fill="#222222">Managed (JSON)</text>
<rect x="212" y="393" width="14" height="14" fill="#1f77b4" rx="2"/>
<text x="232" y="404" font-size="12" fill="#222222">Native (JSON)</text>
<rect x="353" y="393" width="14" height="14" fill="#d62728" rx="2"/>
<text x="373" y="404" font-size="12" fill="#222222">GoRules.Zen</text>
<rect x="480" y="393" width="14" height="14" fill="#ff7f0e" rx="2"/>
<text x="500" y="404" font-size="12" fill="#222222">GoRules.ZenEngine</text>
<text x="968" y="422" text-anchor="end" font-size="11" font-style="italic" fill="#666666">log scale · lower is better · sum-1k / sum-map-1k favour native; map/filter (large result) favour managed</text>
</svg>