<svg xmlns="http://www.w3.org/2000/svg" width="980" height="430" viewBox="0 0 980 430" font-family="Segoe UI,Helvetica,Arial,sans-serif">
<rect width="980" height="430" fill="#ffffff"/>
<text x="490" y="26" text-anchor="middle" font-size="17" font-weight="600" fill="#222222">Heavy load — pure-eval: ZenEngine parses context per call (~ties managed JSON); managed pure still leads</text>
<line x1="64" y1="392.6" x2="964" y2="392.6" stroke="#dddddd" stroke-width="1"/>
<text x="56" y="396.6" text-anchor="end" font-size="11" fill="#666666">1.0 µs</text>
<line x1="64" y1="262.3" x2="964" y2="262.3" stroke="#dddddd" stroke-width="1"/>
<text x="56" y="266.3" text-anchor="end" font-size="11" fill="#666666">10.0 µs</text>
<line x1="64" y1="132.0" x2="964" y2="132.0" stroke="#dddddd" stroke-width="1"/>
<text x="56" y="136.0" text-anchor="end" font-size="11" fill="#666666">100.0 µs</text>
<line x1="64" y1="1.7" x2="964" y2="1.7" stroke="#dddddd" stroke-width="1"/>
<text x="56" y="5.7" text-anchor="end" font-size="11" fill="#666666">1.0 ms</text>
<rect x="80.5" y="318.0" width="25.2" height="16.0" fill="#2ca02c" rx="1.5"/>
<text x="93.1" y="314.0" text-anchor="middle" font-size="9" fill="#222222">3.7 µs</text>
<rect x="109.8" y="334.0" width="25.2" height="0.0" fill="#1f77b4" rx="1.5"/>
<text x="122.3" y="330.0" text-anchor="middle" font-size="9" fill="#222222">2.8 µs</text>
<rect x="139.0" y="107.4" width="25.2" height="226.6" fill="#d62728" rx="1.5"/>
<text x="151.6" y="103.4" text-anchor="middle" font-size="9" fill="#222222">154.5 µs</text>
<rect x="168.2" y="170.1" width="25.2" height="163.9" fill="#ff7f0e" rx="1.5"/>
<text x="180.8" y="166.1" text-anchor="middle" font-size="9" fill="#222222">51.0 µs</text>
<text x="139.0" y="352.0" text-anchor="middle" font-size="11" fill="#222222">sum-1k</text>
<rect x="230.5" y="149.3" width="25.2" height="184.7" fill="#2ca02c" rx="1.5"/>
<text x="243.1" y="145.3" text-anchor="middle" font-size="9" fill="#222222">73.6 µs</text>
<rect x="259.8" y="152.8" width="25.2" height="181.2" fill="#1f77b4" rx="1.5"/>
<text x="272.3" y="148.8" text-anchor="middle" font-size="9" fill="#222222">69.2 µs</text>
<rect x="289.0" y="85.0" width="25.2" height="249.0" fill="#d62728" rx="1.5"/>
<text x="301.6" y="81.0" text-anchor="middle" font-size="9" fill="#222222">229.5 µs</text>
<rect x="318.2" y="113.3" width="25.2" height="220.7" fill="#ff7f0e" rx="1.5"/>
<text x="330.8" y="109.3" text-anchor="middle" font-size="9" fill="#222222">139.1 µs</text>
<text x="289.0" y="352.0" text-anchor="middle" font-size="11" fill="#222222">sum-map-1k</text>
<rect x="380.5" y="266.6" width="25.2" height="67.4" fill="#2ca02c" rx="1.5"/>
<text x="393.1" y="262.6" text-anchor="middle" font-size="9" fill="#222222">9.3 µs</text>
<rect x="409.8" y="265.6" width="25.2" height="68.4" fill="#1f77b4" rx="1.5"/>
<text x="422.3" y="261.6" text-anchor="middle" font-size="9" fill="#222222">9.4 µs</text>
<rect x="439.0" y="112.5" width="25.2" height="221.5" fill="#d62728" rx="1.5"/>
<text x="451.6" y="108.5" text-anchor="middle" font-size="9" fill="#222222">141.0 µs</text>
<rect x="468.2" y="197.2" width="25.2" height="136.8" fill="#ff7f0e" rx="1.5"/>
<text x="480.8" y="193.2" text-anchor="middle" font-size="9" fill="#222222">31.6 µs</text>
<text x="439.0" y="352.0" text-anchor="middle" font-size="11" fill="#222222">arith-200</text>
<rect x="530.5" y="164.2" width="25.2" height="169.8" fill="#2ca02c" rx="1.5"/>
<text x="543.1" y="160.2" text-anchor="middle" font-size="9" fill="#222222">56.6 µs</text>
<rect x="559.8" y="133.1" width="25.2" height="200.9" fill="#1f77b4" rx="1.5"/>
<text x="572.3" y="129.1" text-anchor="middle" font-size="9" fill="#222222">98.1 µs</text>
<rect x="589.0" y="75.9" width="25.2" height="258.1" fill="#d62728" rx="1.5"/>
<text x="601.6" y="71.9" text-anchor="middle" font-size="9" fill="#222222">269.4 µs</text>
<rect x="618.2" y="104.4" width="25.2" height="229.6" fill="#ff7f0e" rx="1.5"/>
<text x="630.8" y="100.4" text-anchor="middle" font-size="9" fill="#222222">162.8 µs</text>
<text x="589.0" y="352.0" text-anchor="middle" font-size="11" fill="#222222">filter-1k</text>
<rect x="680.5" y="146.2" width="25.2" height="187.8" fill="#2ca02c" rx="1.5"/>
<text x="693.1" y="142.2" text-anchor="middle" font-size="9" fill="#222222">77.8 µs</text>
<rect x="709.8" y="97.2" width="25.2" height="236.8" fill="#1f77b4" rx="1.5"/>
<text x="722.3" y="93.2" text-anchor="middle" font-size="9" fill="#222222">185.0 µs</text>
<rect x="739.0" y="56.0" width="25.2" height="278.0" fill="#d62728" rx="1.5"/>
<text x="751.6" y="52.0" text-anchor="middle" font-size="9" fill="#222222">383.1 µs</text>
<rect x="768.2" y="81.8" width="25.2" height="252.2" fill="#ff7f0e" rx="1.5"/>
<text x="780.8" y="77.8" text-anchor="middle" font-size="9" fill="#222222">243.0 µs</text>
<text x="739.0" y="352.0" text-anchor="middle" font-size="11" fill="#222222">map-1k</text>
<rect x="830.5" y="197.0" width="25.2" height="137.0" fill="#2ca02c" rx="1.5"/>
<text x="843.1" y="193.0" text-anchor="middle" font-size="9" fill="#222222">31.7 µs</text>
<rect x="859.8" y="145.8" width="25.2" height="188.2" fill="#1f77b4" rx="1.5"/>
<text x="872.3" y="141.8" text-anchor="middle" font-size="9" fill="#222222">78.3 µs</text>
<rect x="889.0" y="79.9" width="25.2" height="254.1" fill="#d62728" rx="1.5"/>
<text x="901.6" y="75.9" text-anchor="middle" font-size="9" fill="#222222">251.2 µs</text>
<rect x="918.2" y="110.3" width="25.2" height="223.7" fill="#ff7f0e" rx="1.5"/>
<text x="930.8" y="106.3" text-anchor="middle" font-size="9" fill="#222222">146.7 µs</text>
<text x="889.0" y="352.0" text-anchor="middle" font-size="11" fill="#222222">map-obj-100</text>
<line x1="64" y1="334" x2="964" y2="334" stroke="#222222" stroke-width="1.2"/>
<rect x="64" y="393" width="14" height="14" fill="#2ca02c" rx="2"/>
<text x="84" y="404" font-size="12" fill="#222222">Managed (pure)</text>
<rect x="212" y="393" width="14" height="14" fill="#1f77b4" rx="2"/>
<text x="232" y="404" font-size="12" fill="#222222">Native (pure)</text>
<rect x="353" y="393" width="14" height="14" fill="#d62728" rx="2"/>
<text x="373" y="404" font-size="12" fill="#222222">GoRules.Zen</text>
<rect x="480" y="393" width="14" height="14" fill="#ff7f0e" rx="2"/>
<text x="500" y="404" font-size="12" fill="#222222">GoRules.ZenEngine</text>
<text x="968" y="422" text-anchor="end" font-size="11" font-style="italic" fill="#666666">log scale · lower is better · ZenEngine_Pure lines up with managed JSON (Rust re-parses the context bytes each call)</text>
</svg>