<svg xmlns="http://www.w3.org/2000/svg" width="980" height="430" viewBox="0 0 980 430" font-family="Segoe UI,Helvetica,Arial,sans-serif">
<rect width="980" height="430" fill="#ffffff"/>
<text x="490" y="26" text-anchor="middle" font-size="17" font-weight="600" fill="#222222">Heavy load — JSON per call: native leads when allocation stays native + scalar returns</text>
<line x1="64" y1="439.0" x2="964" y2="439.0" stroke="#dddddd" stroke-width="1"/>
<text x="56" y="443.0" text-anchor="end" font-size="11" fill="#666666">10.0 µs</text>
<line x1="64" y1="212.1" x2="964" y2="212.1" stroke="#dddddd" stroke-width="1"/>
<text x="56" y="216.1" text-anchor="end" font-size="11" fill="#666666">100.0 µs</text>
<line x1="64" y1="-14.8" x2="964" y2="-14.8" stroke="#dddddd" stroke-width="1"/>
<text x="56" y="-10.8" text-anchor="end" font-size="11" fill="#666666">1.0 ms</text>
<rect x="80.5" y="261.0" width="33.5" height="73.0" fill="#2ca02c" rx="1.5"/>
<text x="97.3" y="257.0" text-anchor="middle" font-size="9" fill="#222222">60.9 µs</text>
<rect x="119.5" y="334.0" width="33.5" height="0.0" fill="#1f77b4" rx="1.5"/>
<text x="136.3" y="330.0" text-anchor="middle" font-size="9" fill="#222222">29.0 µs</text>
<rect x="158.5" y="142.2" width="33.5" height="191.8" fill="#d62728" rx="1.5"/>
<text x="175.3" y="138.2" text-anchor="middle" font-size="9" fill="#222222">203.1 µs</text>
<text x="139.0" y="352.0" text-anchor="middle" font-size="11" fill="#222222">sum-1k</text>
<rect x="230.5" y="187.2" width="33.5" height="146.8" fill="#2ca02c" rx="1.5"/>
<text x="247.3" y="183.2" text-anchor="middle" font-size="9" fill="#222222">128.6 µs</text>
<rect x="269.5" y="212.0" width="33.5" height="122.0" fill="#1f77b4" rx="1.5"/>
<text x="286.3" y="208.0" text-anchor="middle" font-size="9" fill="#222222">100.0 µs</text>
<rect x="308.5" y="108.9" width="33.5" height="225.1" fill="#d62728" rx="1.5"/>
<text x="325.3" y="104.9" text-anchor="middle" font-size="9" fill="#222222">284.9 µs</text>
<text x="289.0" y="352.0" text-anchor="middle" font-size="11" fill="#222222">sum-map-1k</text>
<rect x="380.5" y="317.8" width="33.5" height="16.2" fill="#2ca02c" rx="1.5"/>
<text x="397.3" y="313.8" text-anchor="middle" font-size="9" fill="#222222">34.2 µs</text>
<rect x="419.5" y="256.5" width="33.5" height="77.5" fill="#1f77b4" rx="1.5"/>
<text x="436.3" y="252.5" text-anchor="middle" font-size="9" fill="#222222">63.7 µs</text>
<rect x="458.5" y="168.3" width="33.5" height="165.7" fill="#d62728" rx="1.5"/>
<text x="475.3" y="164.3" text-anchor="middle" font-size="9" fill="#222222">155.9 µs</text>
<text x="439.0" y="352.0" text-anchor="middle" font-size="11" fill="#222222">arith-200</text>
<rect x="530.5" y="193.0" width="33.5" height="141.0" fill="#2ca02c" rx="1.5"/>
<text x="547.3" y="189.0" text-anchor="middle" font-size="9" fill="#222222">121.3 µs</text>
<rect x="569.5" y="183.5" width="33.5" height="150.5" fill="#1f77b4" rx="1.5"/>
<text x="586.3" y="179.5" text-anchor="middle" font-size="9" fill="#222222">133.6 µs</text>
<rect x="608.5" y="83.0" width="33.5" height="251.0" fill="#d62728" rx="1.5"/>
<text x="625.3" y="79.0" text-anchor="middle" font-size="9" fill="#222222">370.5 µs</text>
<text x="589.0" y="352.0" text-anchor="middle" font-size="11" fill="#222222">filter-1k</text>
<rect x="680.5" y="167.3" width="33.5" height="166.7" fill="#2ca02c" rx="1.5"/>
<text x="697.3" y="163.3" text-anchor="middle" font-size="9" fill="#222222">157.5 µs</text>
<rect x="719.5" y="127.1" width="33.5" height="206.9" fill="#1f77b4" rx="1.5"/>
<text x="736.3" y="123.1" text-anchor="middle" font-size="9" fill="#222222">236.7 µs</text>
<rect x="758.5" y="56.0" width="33.5" height="278.0" fill="#d62728" rx="1.5"/>
<text x="775.3" y="52.0" text-anchor="middle" font-size="9" fill="#222222">487.3 µs</text>
<text x="739.0" y="352.0" text-anchor="middle" font-size="11" fill="#222222">map-1k</text>
<rect x="830.5" y="255.0" width="33.5" height="79.0" fill="#2ca02c" rx="1.5"/>
<text x="847.3" y="251.0" text-anchor="middle" font-size="9" fill="#222222">64.7 µs</text>
<rect x="869.5" y="178.8" width="33.5" height="155.2" fill="#1f77b4" rx="1.5"/>
<text x="886.3" y="174.8" text-anchor="middle" font-size="9" fill="#222222">140.2 µs</text>
<rect x="908.5" y="86.0" width="33.5" height="248.0" fill="#d62728" rx="1.5"/>
<text x="925.3" y="82.0" text-anchor="middle" font-size="9" fill="#222222">359.5 µs</text>
<text x="889.0" y="352.0" text-anchor="middle" font-size="11" fill="#222222">map-obj-100</text>
<line x1="64" y1="334" x2="964" y2="334" stroke="#222222" stroke-width="1.2"/>
<rect x="64" y="393" width="14" height="14" fill="#2ca02c" rx="2"/>
<text x="84" y="404" font-size="12" fill="#222222">Managed (JSON)</text>
<rect x="212" y="393" width="14" height="14" fill="#1f77b4" rx="2"/>
<text x="232" y="404" font-size="12" fill="#222222">Native (JSON)</text>
<rect x="353" y="393" width="14" height="14" fill="#d62728" rx="2"/>
<text x="373" y="404" font-size="12" fill="#222222">GoRules</text>
<text x="968" y="422" text-anchor="end" font-size="11" font-style="italic" fill="#666666">log scale · lower is better · sum-1k / sum-map-1k favour native; map/filter (large result) favour managed</text>
</svg>