<svg xmlns="http://www.w3.org/2000/svg" width="980" height="430" viewBox="0 0 980 430" font-family="Segoe UI,Helvetica,Arial,sans-serif">
<rect width="980" height="430" fill="#ffffff"/>
<text x="490" y="26" text-anchor="middle" font-size="17" font-weight="600" fill="#222222">Heavy load — pure-eval: ZenEngine parses context per call (~ties managed JSON); managed pure still leads</text>
<line x1="64" y1="393.5" x2="964" y2="393.5" stroke="#dddddd" stroke-width="1"/>
<text x="56" y="397.5" text-anchor="end" font-size="11" fill="#666666">1.0 µs</text>
<line x1="64" y1="264.5" x2="964" y2="264.5" stroke="#dddddd" stroke-width="1"/>
<text x="56" y="268.5" text-anchor="end" font-size="11" fill="#666666">10.0 µs</text>
<line x1="64" y1="135.5" x2="964" y2="135.5" stroke="#dddddd" stroke-width="1"/>
<text x="56" y="139.5" text-anchor="end" font-size="11" fill="#666666">100.0 µs</text>
<line x1="64" y1="6.5" x2="964" y2="6.5" stroke="#dddddd" stroke-width="1"/>
<text x="56" y="10.5" text-anchor="end" font-size="11" fill="#666666">1.0 ms</text>
<rect x="80.5" y="318.9" width="25.2" height="15.1" fill="#2ca02c" rx="1.5"/>
<text x="93.1" y="314.9" text-anchor="middle" font-size="9" fill="#222222">3.8 µs</text>
<rect x="109.8" y="334.0" width="25.2" height="0.0" fill="#1f77b4" rx="1.5"/>
<text x="122.3" y="330.0" text-anchor="middle" font-size="9" fill="#222222">2.9 µs</text>
<rect x="139.0" y="109.9" width="25.2" height="224.1" fill="#d62728" rx="1.5"/>
<text x="151.6" y="105.9" text-anchor="middle" font-size="9" fill="#222222">157.8 µs</text>
<rect x="168.2" y="172.1" width="25.2" height="161.9" fill="#ff7f0e" rx="1.5"/>
<text x="180.8" y="168.1" text-anchor="middle" font-size="9" fill="#222222">52.1 µs</text>
<text x="139.0" y="352.0" text-anchor="middle" font-size="11" fill="#222222">sum-1k</text>
<rect x="230.5" y="151.1" width="25.2" height="182.9" fill="#2ca02c" rx="1.5"/>
<text x="243.1" y="147.1" text-anchor="middle" font-size="9" fill="#222222">75.7 µs</text>
<rect x="259.8" y="157.0" width="25.2" height="177.0" fill="#1f77b4" rx="1.5"/>
<text x="272.3" y="153.0" text-anchor="middle" font-size="9" fill="#222222">68.1 µs</text>
<rect x="289.0" y="86.2" width="25.2" height="247.8" fill="#d62728" rx="1.5"/>
<text x="301.6" y="82.2" text-anchor="middle" font-size="9" fill="#222222">241.0 µs</text>
<rect x="318.2" y="125.2" width="25.2" height="208.8" fill="#ff7f0e" rx="1.5"/>
<text x="330.8" y="121.2" text-anchor="middle" font-size="9" fill="#222222">120.2 µs</text>
<text x="289.0" y="352.0" text-anchor="middle" font-size="11" fill="#222222">sum-map-1k</text>
<rect x="380.5" y="263.3" width="25.2" height="70.7" fill="#2ca02c" rx="1.5"/>
<text x="393.1" y="259.3" text-anchor="middle" font-size="9" fill="#222222">10.2 µs</text>
<rect x="409.8" y="266.5" width="25.2" height="67.5" fill="#1f77b4" rx="1.5"/>
<text x="422.3" y="262.5" text-anchor="middle" font-size="9" fill="#222222">9.7 µs</text>
<rect x="439.0" y="119.5" width="25.2" height="214.5" fill="#d62728" rx="1.5"/>
<text x="451.6" y="115.5" text-anchor="middle" font-size="9" fill="#222222">133.1 µs</text>
<rect x="468.2" y="199.4" width="25.2" height="134.6" fill="#ff7f0e" rx="1.5"/>
<text x="480.8" y="195.4" text-anchor="middle" font-size="9" fill="#222222">32.0 µs</text>
<text x="439.0" y="352.0" text-anchor="middle" font-size="11" fill="#222222">arith-200</text>
<rect x="530.5" y="167.2" width="25.2" height="166.8" fill="#2ca02c" rx="1.5"/>
<text x="543.1" y="163.2" text-anchor="middle" font-size="9" fill="#222222">56.8 µs</text>
<rect x="559.8" y="131.9" width="25.2" height="202.1" fill="#1f77b4" rx="1.5"/>
<text x="572.3" y="127.9" text-anchor="middle" font-size="9" fill="#222222">106.7 µs</text>
<rect x="589.0" y="77.3" width="25.2" height="256.7" fill="#d62728" rx="1.5"/>
<text x="601.6" y="73.3" text-anchor="middle" font-size="9" fill="#222222">282.5 µs</text>
<rect x="618.2" y="115.9" width="25.2" height="218.1" fill="#ff7f0e" rx="1.5"/>
<text x="630.8" y="111.9" text-anchor="middle" font-size="9" fill="#222222">141.9 µs</text>
<text x="589.0" y="352.0" text-anchor="middle" font-size="11" fill="#222222">filter-1k</text>
<rect x="680.5" y="147.2" width="25.2" height="186.8" fill="#2ca02c" rx="1.5"/>
<text x="693.1" y="143.2" text-anchor="middle" font-size="9" fill="#222222">81.2 µs</text>
<rect x="709.8" y="97.4" width="25.2" height="236.6" fill="#1f77b4" rx="1.5"/>
<text x="722.3" y="93.4" text-anchor="middle" font-size="9" fill="#222222">197.3 µs</text>
<rect x="739.0" y="56.0" width="25.2" height="278.0" fill="#d62728" rx="1.5"/>
<text x="751.6" y="52.0" text-anchor="middle" font-size="9" fill="#222222">413.1 µs</text>
<rect x="768.2" y="88.3" width="25.2" height="245.7" fill="#ff7f0e" rx="1.5"/>
<text x="780.8" y="84.3" text-anchor="middle" font-size="9" fill="#222222">231.9 µs</text>
<text x="739.0" y="352.0" text-anchor="middle" font-size="11" fill="#222222">map-1k</text>
<rect x="830.5" y="197.6" width="25.2" height="136.4" fill="#2ca02c" rx="1.5"/>
<text x="843.1" y="193.6" text-anchor="middle" font-size="9" fill="#222222">33.0 µs</text>
<rect x="859.8" y="143.7" width="25.2" height="190.3" fill="#1f77b4" rx="1.5"/>
<text x="872.3" y="139.7" text-anchor="middle" font-size="9" fill="#222222">86.3 µs</text>
<rect x="889.0" y="79.1" width="25.2" height="254.9" fill="#d62728" rx="1.5"/>
<text x="901.6" y="75.1" text-anchor="middle" font-size="9" fill="#222222">273.3 µs</text>
<rect x="918.2" y="110.6" width="25.2" height="223.4" fill="#ff7f0e" rx="1.5"/>
<text x="930.8" y="106.6" text-anchor="middle" font-size="9" fill="#222222">155.8 µs</text>
<text x="889.0" y="352.0" text-anchor="middle" font-size="11" fill="#222222">map-obj-100</text>
<line x1="64" y1="334" x2="964" y2="334" stroke="#222222" stroke-width="1.2"/>
<rect x="64" y="393" width="14" height="14" fill="#2ca02c" rx="2"/>
<text x="84" y="404" font-size="12" fill="#222222">Managed (pure)</text>
<rect x="212" y="393" width="14" height="14" fill="#1f77b4" rx="2"/>
<text x="232" y="404" font-size="12" fill="#222222">Native (pure)</text>
<rect x="353" y="393" width="14" height="14" fill="#d62728" rx="2"/>
<text x="373" y="404" font-size="12" fill="#222222">GoRules.Zen</text>
<rect x="480" y="393" width="14" height="14" fill="#ff7f0e" rx="2"/>
<text x="500" y="404" font-size="12" fill="#222222">GoRules.ZenEngine</text>
<text x="968" y="422" text-anchor="end" font-size="11" font-style="italic" fill="#666666">log scale · lower is better · ZenEngine_Pure lines up with managed JSON (Rust re-parses the context bytes each call)</text>
</svg>