<svg xmlns="http://www.w3.org/2000/svg" width="980" height="430" viewBox="0 0 980 430" font-family="Segoe UI,Helvetica,Arial,sans-serif">
<rect width="980" height="430" fill="#ffffff"/>
<text x="490" y="26" text-anchor="middle" font-size="17" font-weight="600" fill="#222222">Heavy load — pure-eval (pre-parsed context): native wins only on sum-1k</text>
<line x1="64" y1="394.9" x2="964" y2="394.9" stroke="#dddddd" stroke-width="1"/>
<text x="56" y="398.9" text-anchor="end" font-size="11" fill="#666666">1.0 µs</text>
<line x1="64" y1="265.2" x2="964" y2="265.2" stroke="#dddddd" stroke-width="1"/>
<text x="56" y="269.2" text-anchor="end" font-size="11" fill="#666666">10.0 µs</text>
<line x1="64" y1="135.5" x2="964" y2="135.5" stroke="#dddddd" stroke-width="1"/>
<text x="56" y="139.5" text-anchor="end" font-size="11" fill="#666666">100.0 µs</text>
<line x1="64" y1="5.9" x2="964" y2="5.9" stroke="#dddddd" stroke-width="1"/>
<text x="56" y="9.9" text-anchor="end" font-size="11" fill="#666666">1.0 ms</text>
<rect x="83.8" y="323.8" width="40.2" height="10.2" fill="#2ca02c" rx="1.5"/>
<text x="103.9" y="319.8" text-anchor="middle" font-size="9" fill="#222222">3.5 µs</text>
<rect x="130.6" y="334.0" width="40.2" height="0.0" fill="#1f77b4" rx="1.5"/>
<text x="150.7" y="330.0" text-anchor="middle" font-size="9" fill="#222222">3.0 µs</text>
<rect x="177.4" y="108.1" width="40.2" height="225.9" fill="#d62728" rx="1.5"/>
<text x="197.5" y="104.1" text-anchor="middle" font-size="9" fill="#222222">162.7 µs</text>
<text x="154.0" y="352.0" text-anchor="middle" font-size="11" fill="#222222">sum-1k</text>
<rect x="263.8" y="267.3" width="40.2" height="66.7" fill="#2ca02c" rx="1.5"/>
<text x="283.9" y="263.3" text-anchor="middle" font-size="9" fill="#222222">9.6 µs</text>
<rect x="310.6" y="268.0" width="40.2" height="66.0" fill="#1f77b4" rx="1.5"/>
<text x="330.7" y="264.0" text-anchor="middle" font-size="9" fill="#222222">9.5 µs</text>
<rect x="357.4" y="118.6" width="40.2" height="215.4" fill="#d62728" rx="1.5"/>
<text x="377.5" y="114.6" text-anchor="middle" font-size="9" fill="#222222">135.2 µs</text>
<text x="334.0" y="352.0" text-anchor="middle" font-size="11" fill="#222222">arith-200</text>
<rect x="443.8" y="164.8" width="40.2" height="169.2" fill="#2ca02c" rx="1.5"/>
<text x="463.9" y="160.8" text-anchor="middle" font-size="9" fill="#222222">59.5 µs</text>
<rect x="490.6" y="130.8" width="40.2" height="203.2" fill="#1f77b4" rx="1.5"/>
<text x="510.7" y="126.8" text-anchor="middle" font-size="9" fill="#222222">108.8 µs</text>
<rect x="537.4" y="77.3" width="40.2" height="256.7" fill="#d62728" rx="1.5"/>
<text x="557.5" y="73.3" text-anchor="middle" font-size="9" fill="#222222">281.3 µs</text>
<text x="514.0" y="352.0" text-anchor="middle" font-size="11" fill="#222222">filter-1k</text>
<rect x="623.8" y="148.7" width="40.2" height="185.3" fill="#2ca02c" rx="1.5"/>
<text x="643.9" y="144.7" text-anchor="middle" font-size="9" fill="#222222">79.2 µs</text>
<rect x="670.6" y="98.0" width="40.2" height="236.0" fill="#1f77b4" rx="1.5"/>
<text x="690.7" y="94.0" text-anchor="middle" font-size="9" fill="#222222">194.8 µs</text>
<rect x="717.4" y="56.0" width="40.2" height="278.0" fill="#d62728" rx="1.5"/>
<text x="737.5" y="52.0" text-anchor="middle" font-size="9" fill="#222222">410.6 µs</text>
<text x="694.0" y="352.0" text-anchor="middle" font-size="11" fill="#222222">map-1k</text>
<rect x="803.8" y="197.1" width="40.2" height="136.9" fill="#2ca02c" rx="1.5"/>
<text x="823.9" y="193.1" text-anchor="middle" font-size="9" fill="#222222">33.5 µs</text>
<rect x="850.6" y="138.6" width="40.2" height="195.4" fill="#1f77b4" rx="1.5"/>
<text x="870.7" y="134.6" text-anchor="middle" font-size="9" fill="#222222">94.7 µs</text>
<rect x="897.4" y="79.1" width="40.2" height="254.9" fill="#d62728" rx="1.5"/>
<text x="917.5" y="75.1" text-anchor="middle" font-size="9" fill="#222222">272.5 µs</text>
<text x="874.0" y="352.0" text-anchor="middle" font-size="11" fill="#222222">map-obj-100</text>
<line x1="64" y1="334" x2="964" y2="334" stroke="#222222" stroke-width="1.2"/>
<rect x="64" y="393" width="14" height="14" fill="#2ca02c" rx="2"/>
<text x="84" y="404" font-size="12" fill="#222222">Managed (pure)</text>
<rect x="212" y="393" width="14" height="14" fill="#1f77b4" rx="2"/>
<text x="232" y="404" font-size="12" fill="#222222">Native (pure)</text>
<rect x="353" y="393" width="14" height="14" fill="#d62728" rx="2"/>
<text x="373" y="404" font-size="12" fill="#222222">GoRules</text>
<text x="968" y="422" text-anchor="end" font-size="11" font-style="italic" fill="#666666">log scale · lower is better · native edges ahead on scalar-result compute (sum-1k)</text>
</svg>