<svg xmlns="http://www.w3.org/2000/svg" width="980" height="430" viewBox="0 0 980 430" font-family="Segoe UI,Helvetica,Arial,sans-serif">
<rect width="980" height="430" fill="#ffffff"/>
<text x="490" y="26" text-anchor="middle" font-size="17" font-weight="600" fill="#222222">Heavy load — pure-eval (pre-parsed context): native wins only on sum-1k</text>
<line x1="64" y1="402.7" x2="964" y2="402.7" stroke="#dddddd" stroke-width="1"/>
<text x="56" y="406.7" text-anchor="end" font-size="11" fill="#666666">1.0 µs</text>
<line x1="64" y1="270.3" x2="964" y2="270.3" stroke="#dddddd" stroke-width="1"/>
<text x="56" y="274.3" text-anchor="end" font-size="11" fill="#666666">10.0 µs</text>
<line x1="64" y1="138.0" x2="964" y2="138.0" stroke="#dddddd" stroke-width="1"/>
<text x="56" y="142.0" text-anchor="end" font-size="11" fill="#666666">100.0 µs</text>
<line x1="64" y1="5.7" x2="964" y2="5.7" stroke="#dddddd" stroke-width="1"/>
<text x="56" y="9.7" text-anchor="end" font-size="11" fill="#666666">1.0 ms</text>
<rect x="83.8" y="327.3" width="40.2" height="6.7" fill="#2ca02c" rx="1.5"/>
<text x="103.9" y="323.3" text-anchor="middle" font-size="9" fill="#222222">3.7 µs</text>
<rect x="130.6" y="334.0" width="40.2" height="0.0" fill="#1f77b4" rx="1.5"/>
<text x="150.7" y="330.0" text-anchor="middle" font-size="9" fill="#222222">3.3 µs</text>
<rect x="177.4" y="109.7" width="40.2" height="224.3" fill="#d62728" rx="1.5"/>
<text x="197.5" y="105.7" text-anchor="middle" font-size="9" fill="#222222">163.7 µs</text>
<text x="154.0" y="352.0" text-anchor="middle" font-size="11" fill="#222222">sum-1k</text>
<rect x="263.8" y="274.5" width="40.2" height="59.5" fill="#2ca02c" rx="1.5"/>
<text x="283.9" y="270.5" text-anchor="middle" font-size="9" fill="#222222">9.3 µs</text>
<rect x="310.6" y="266.9" width="40.2" height="67.1" fill="#1f77b4" rx="1.5"/>
<text x="330.7" y="262.9" text-anchor="middle" font-size="9" fill="#222222">10.6 µs</text>
<rect x="357.4" y="115.7" width="40.2" height="218.3" fill="#d62728" rx="1.5"/>
<text x="377.5" y="111.7" text-anchor="middle" font-size="9" fill="#222222">147.5 µs</text>
<text x="334.0" y="352.0" text-anchor="middle" font-size="11" fill="#222222">arith-200</text>
<rect x="443.8" y="163.0" width="40.2" height="171.0" fill="#2ca02c" rx="1.5"/>
<text x="463.9" y="159.0" text-anchor="middle" font-size="9" fill="#222222">64.7 µs</text>
<rect x="490.6" y="123.3" width="40.2" height="210.7" fill="#1f77b4" rx="1.5"/>
<text x="510.7" y="119.3" text-anchor="middle" font-size="9" fill="#222222">129.2 µs</text>
<rect x="537.4" y="75.6" width="40.2" height="258.4" fill="#d62728" rx="1.5"/>
<text x="557.5" y="71.6" text-anchor="middle" font-size="9" fill="#222222">296.0 µs</text>
<text x="514.0" y="352.0" text-anchor="middle" font-size="11" fill="#222222">filter-1k</text>
<rect x="623.8" y="147.1" width="40.2" height="186.9" fill="#2ca02c" rx="1.5"/>
<text x="643.9" y="143.1" text-anchor="middle" font-size="9" fill="#222222">85.3 µs</text>
<rect x="670.6" y="92.0" width="40.2" height="242.0" fill="#1f77b4" rx="1.5"/>
<text x="690.7" y="88.0" text-anchor="middle" font-size="9" fill="#222222">222.6 µs</text>
<rect x="717.4" y="56.0" width="40.2" height="278.0" fill="#d62728" rx="1.5"/>
<text x="737.5" y="52.0" text-anchor="middle" font-size="9" fill="#222222">416.5 µs</text>
<text x="694.0" y="352.0" text-anchor="middle" font-size="11" fill="#222222">map-1k</text>
<rect x="803.8" y="199.7" width="40.2" height="134.3" fill="#2ca02c" rx="1.5"/>
<text x="823.9" y="195.7" text-anchor="middle" font-size="9" fill="#222222">34.2 µs</text>
<rect x="850.6" y="133.5" width="40.2" height="200.5" fill="#1f77b4" rx="1.5"/>
<text x="870.7" y="129.5" text-anchor="middle" font-size="9" fill="#222222">108.2 µs</text>
<rect x="897.4" y="79.6" width="40.2" height="254.4" fill="#d62728" rx="1.5"/>
<text x="917.5" y="75.6" text-anchor="middle" font-size="9" fill="#222222">276.2 µs</text>
<text x="874.0" y="352.0" text-anchor="middle" font-size="11" fill="#222222">map-obj-100</text>
<line x1="64" y1="334" x2="964" y2="334" stroke="#222222" stroke-width="1.2"/>
<rect x="64" y="393" width="14" height="14" fill="#2ca02c" rx="2"/>
<text x="84" y="404" font-size="12" fill="#222222">Managed (pure)</text>
<rect x="212" y="393" width="14" height="14" fill="#1f77b4" rx="2"/>
<text x="232" y="404" font-size="12" fill="#222222">Native (pure)</text>
<rect x="353" y="393" width="14" height="14" fill="#d62728" rx="2"/>
<text x="373" y="404" font-size="12" fill="#222222">GoRules</text>
<text x="968" y="422" text-anchor="end" font-size="11" font-style="italic" fill="#666666">log scale · lower is better · native edges ahead on scalar-result compute (sum-1k)</text>
</svg>