<svg xmlns="http://www.w3.org/2000/svg" width="980" height="430" viewBox="0 0 980 430" font-family="Segoe UI,Helvetica,Arial,sans-serif">
<rect width="980" height="430" fill="#ffffff"/>
<text x="490" y="26" text-anchor="middle" font-size="17" font-weight="600" fill="#222222">Heavy load — pure-eval: native edges ahead on scalar compute; sum(map) mitigated by fusion to ~tied</text>
<line x1="64" y1="398.2" x2="964" y2="398.2" stroke="#dddddd" stroke-width="1"/>
<text x="56" y="402.2" text-anchor="end" font-size="11" fill="#666666">1.0 µs</text>
<line x1="64" y1="271.5" x2="964" y2="271.5" stroke="#dddddd" stroke-width="1"/>
<text x="56" y="275.5" text-anchor="end" font-size="11" fill="#666666">10.0 µs</text>
<line x1="64" y1="144.8" x2="964" y2="144.8" stroke="#dddddd" stroke-width="1"/>
<text x="56" y="148.8" text-anchor="end" font-size="11" fill="#666666">100.0 µs</text>
<line x1="64" y1="18.1" x2="964" y2="18.1" stroke="#dddddd" stroke-width="1"/>
<text x="56" y="22.1" text-anchor="end" font-size="11" fill="#666666">1.0 ms</text>
<rect x="80.5" y="322.8" width="33.5" height="11.2" fill="#2ca02c" rx="1.5"/>
<text x="97.3" y="318.8" text-anchor="middle" font-size="9" fill="#222222">3.9 µs</text>
<rect x="119.5" y="334.0" width="33.5" height="0.0" fill="#1f77b4" rx="1.5"/>
<text x="136.3" y="330.0" text-anchor="middle" font-size="9" fill="#222222">3.2 µs</text>
<rect x="158.5" y="110.9" width="33.5" height="223.1" fill="#d62728" rx="1.5"/>
<text x="175.3" y="106.9" text-anchor="middle" font-size="9" fill="#222222">185.1 µs</text>
<text x="139.0" y="352.0" text-anchor="middle" font-size="11" fill="#222222">sum-1k</text>
<rect x="230.5" y="156.9" width="33.5" height="177.1" fill="#2ca02c" rx="1.5"/>
<text x="247.3" y="152.9" text-anchor="middle" font-size="9" fill="#222222">80.2 µs</text>
<rect x="269.5" y="158.5" width="33.5" height="175.5" fill="#1f77b4" rx="1.5"/>
<text x="286.3" y="154.5" text-anchor="middle" font-size="9" fill="#222222">78.0 µs</text>
<rect x="308.5" y="96.0" width="33.5" height="238.0" fill="#d62728" rx="1.5"/>
<text x="325.3" y="92.0" text-anchor="middle" font-size="9" fill="#222222">242.5 µs</text>
<text x="289.0" y="352.0" text-anchor="middle" font-size="11" fill="#222222">sum-map-1k</text>
<rect x="380.5" y="265.4" width="33.5" height="68.6" fill="#2ca02c" rx="1.5"/>
<text x="397.3" y="261.4" text-anchor="middle" font-size="9" fill="#222222">11.2 µs</text>
<rect x="419.5" y="269.0" width="33.5" height="65.0" fill="#1f77b4" rx="1.5"/>
<text x="436.3" y="265.0" text-anchor="middle" font-size="9" fill="#222222">10.5 µs</text>
<rect x="458.5" y="123.3" width="33.5" height="210.7" fill="#d62728" rx="1.5"/>
<text x="475.3" y="119.3" text-anchor="middle" font-size="9" fill="#222222">147.9 µs</text>
<text x="439.0" y="352.0" text-anchor="middle" font-size="11" fill="#222222">arith-200</text>
<rect x="530.5" y="171.3" width="33.5" height="162.7" fill="#2ca02c" rx="1.5"/>
<text x="547.3" y="167.3" text-anchor="middle" font-size="9" fill="#222222">61.7 µs</text>
<rect x="569.5" y="139.3" width="33.5" height="194.7" fill="#1f77b4" rx="1.5"/>
<text x="586.3" y="135.3" text-anchor="middle" font-size="9" fill="#222222">110.6 µs</text>
<rect x="608.5" y="83.5" width="33.5" height="250.5" fill="#d62728" rx="1.5"/>
<text x="625.3" y="79.5" text-anchor="middle" font-size="9" fill="#222222">304.5 µs</text>
<text x="589.0" y="352.0" text-anchor="middle" font-size="11" fill="#222222">filter-1k</text>
<rect x="680.5" y="151.1" width="33.5" height="182.9" fill="#2ca02c" rx="1.5"/>
<text x="697.3" y="147.1" text-anchor="middle" font-size="9" fill="#222222">89.1 µs</text>
<rect x="719.5" y="97.9" width="33.5" height="236.1" fill="#1f77b4" rx="1.5"/>
<text x="736.3" y="93.9" text-anchor="middle" font-size="9" fill="#222222">234.4 µs</text>
<rect x="758.5" y="56.0" width="33.5" height="278.0" fill="#d62728" rx="1.5"/>
<text x="775.3" y="52.0" text-anchor="middle" font-size="9" fill="#222222">502.2 µs</text>
<text x="739.0" y="352.0" text-anchor="middle" font-size="11" fill="#222222">map-1k</text>
<rect x="830.5" y="199.6" width="33.5" height="134.4" fill="#2ca02c" rx="1.5"/>
<text x="847.3" y="195.6" text-anchor="middle" font-size="9" fill="#222222">36.9 µs</text>
<rect x="869.5" y="146.1" width="33.5" height="187.9" fill="#1f77b4" rx="1.5"/>
<text x="886.3" y="142.1" text-anchor="middle" font-size="9" fill="#222222">97.6 µs</text>
<rect x="908.5" y="80.1" width="33.5" height="253.9" fill="#d62728" rx="1.5"/>
<text x="925.3" y="76.1" text-anchor="middle" font-size="9" fill="#222222">324.2 µs</text>
<text x="889.0" y="352.0" text-anchor="middle" font-size="11" fill="#222222">map-obj-100</text>
<line x1="64" y1="334" x2="964" y2="334" stroke="#222222" stroke-width="1.2"/>
<rect x="64" y="393" width="14" height="14" fill="#2ca02c" rx="2"/>
<text x="84" y="404" font-size="12" fill="#222222">Managed (pure)</text>
<rect x="212" y="393" width="14" height="14" fill="#1f77b4" rx="2"/>
<text x="232" y="404" font-size="12" fill="#222222">Native (pure)</text>
<rect x="353" y="393" width="14" height="14" fill="#d62728" rx="2"/>
<text x="373" y="404" font-size="12" fill="#222222">GoRules</text>
<text x="968" y="422" text-anchor="end" font-size="11" font-style="italic" fill="#666666">log scale · lower is better · fusion drops sum(map) intermediate alloc -> managed ties native (80 vs 78 us)</text>
</svg>