<svg xmlns="http://www.w3.org/2000/svg" width="560" height="320" viewBox="0 0 560 320" font-family="Segoe UI,Helvetica,Arial,sans-serif">
<rect width="560" height="320" fill="#ffffff"/>
<text x="280" y="26" text-anchor="middle" font-size="17" font-weight="600" fill="#222222">Isolated P/Invoke overhead — the boundary itself is cheap (~7 ns)</text>
<line x1="64" y1="224.0" x2="544" y2="224.0" stroke="#dddddd" stroke-width="1"/>
<text x="56" y="228.0" text-anchor="end" font-size="11" fill="#666666">6.8 ns</text>
<line x1="64" y1="190.4" x2="544" y2="190.4" stroke="#dddddd" stroke-width="1"/>
<text x="56" y="194.4" text-anchor="end" font-size="11" fill="#666666">7.0 ns</text>
<line x1="64" y1="156.8" x2="544" y2="156.8" stroke="#dddddd" stroke-width="1"/>
<text x="56" y="160.8" text-anchor="end" font-size="11" fill="#666666">7.2 ns</text>
<line x1="64" y1="123.2" x2="544" y2="123.2" stroke="#dddddd" stroke-width="1"/>
<text x="56" y="127.2" text-anchor="end" font-size="11" fill="#666666">7.4 ns</text>
<line x1="64" y1="89.6" x2="544" y2="89.6" stroke="#dddddd" stroke-width="1"/>
<text x="56" y="93.6" text-anchor="end" font-size="11" fill="#666666">7.6 ns</text>
<line x1="64" y1="56.0" x2="544" y2="56.0" stroke="#dddddd" stroke-width="1"/>
<text x="56" y="60.0" text-anchor="end" font-size="11" fill="#666666">7.8 ns</text>
<rect x="116.8" y="222.0" width="161.0" height="2.0" fill="#2ca02c" rx="1.5"/>
<text x="197.3" y="218.0" text-anchor="middle" font-size="9" fill="#222222">0</text>
<rect x="304.0" y="224.0" width="161.0" height="0.0" fill="#1f77b4" rx="1.5"/>
<text x="384.5" y="220.0" text-anchor="middle" font-size="9" fill="#222222">6.8 ns</text>
<text x="304.0" y="242.0" text-anchor="middle" font-size="11" fill="#222222">a + b</text>
<line x1="64" y1="224" x2="544" y2="224" stroke="#222222" stroke-width="1.2"/>
<rect x="64" y="283" width="14" height="14" fill="#2ca02c" rx="2"/>
<text x="84" y="294" font-size="12" fill="#222222">Managed inline add</text>
<rect x="240" y="283" width="14" height="14" fill="#1f77b4" rx="2"/>
<text x="260" y="294" font-size="12" fill="#222222">Native zen_add (1 P/Invoke)</text>
<text x="548" y="312" text-anchor="end" font-size="11" font-style="italic" fill="#666666">linear scale · this is NOT what slows the native engines down</text>
</svg>