<svg xmlns="http://www.w3.org/2000/svg" width="980" height="430" viewBox="0 0 980 430" font-family="Segoe UI,Helvetica,Arial,sans-serif">
<rect width="980" height="430" fill="#ffffff"/>
<text x="490" y="26" text-anchor="middle" font-size="17" font-weight="600" fill="#222222">Resource-limit enforcement overhead — Evaluate off vs on (near-zero)</text>
<line x1="64" y1="368.2" x2="964" y2="368.2" stroke="#dddddd" stroke-width="1"/>
<text x="56" y="372.2" text-anchor="end" font-size="11" fill="#666666">100 ns</text>
<line x1="64" y1="138.8" x2="964" y2="138.8" stroke="#dddddd" stroke-width="1"/>
<text x="56" y="142.8" text-anchor="end" font-size="11" fill="#666666">1.0 µs</text>
<line x1="64" y1="-90.7" x2="964" y2="-90.7" stroke="#dddddd" stroke-width="1"/>
<text x="56" y="-86.7" text-anchor="end" font-size="11" fill="#666666">10.0 µs</text>
<rect x="78.1" y="334.0" width="43.1" height="0.0" fill="#2ca02c" rx="1.5"/>
<text x="99.7" y="330.0" text-anchor="middle" font-size="9" fill="#222222">141 ns</text>
<rect x="128.3" y="334.0" width="43.1" height="0.0" fill="#1f77b4" rx="1.5"/>
<text x="149.8" y="330.0" text-anchor="middle" font-size="9" fill="#222222">141 ns</text>
<text x="128.3" y="352.0" text-anchor="middle" font-size="11" fill="#222222">simple-few</text>
<rect x="206.7" y="261.8" width="43.1" height="72.2" fill="#2ca02c" rx="1.5"/>
<text x="228.3" y="257.8" text-anchor="middle" font-size="9" fill="#222222">291 ns</text>
<rect x="256.9" y="262.8" width="43.1" height="71.2" fill="#1f77b4" rx="1.5"/>
<text x="278.4" y="258.8" text-anchor="middle" font-size="9" fill="#222222">288 ns</text>
<text x="256.9" y="352.0" text-anchor="middle" font-size="11" fill="#222222">complex-few</text>
<rect x="335.3" y="58.2" width="43.1" height="275.8" fill="#2ca02c" rx="1.5"/>
<text x="356.8" y="54.2" text-anchor="middle" font-size="9" fill="#222222">2.2 µs</text>
<rect x="385.4" y="56.0" width="43.1" height="278.0" fill="#1f77b4" rx="1.5"/>
<text x="407.0" y="52.0" text-anchor="middle" font-size="9" fill="#222222">2.3 µs</text>
<text x="385.4" y="352.0" text-anchor="middle" font-size="11" fill="#222222">simple-many</text>
<rect x="463.9" y="64.2" width="43.1" height="269.8" fill="#2ca02c" rx="1.5"/>
<text x="485.4" y="60.2" text-anchor="middle" font-size="9" fill="#222222">2.1 µs</text>
<rect x="514.0" y="66.0" width="43.1" height="268.0" fill="#1f77b4" rx="1.5"/>
<text x="535.6" y="62.0" text-anchor="middle" font-size="9" fill="#222222">2.1 µs</text>
<text x="514.0" y="352.0" text-anchor="middle" font-size="11" fill="#222222">complex-many</text>
<rect x="592.4" y="260.1" width="43.1" height="73.9" fill="#2ca02c" rx="1.5"/>
<text x="614.0" y="256.1" text-anchor="middle" font-size="9" fill="#222222">296 ns</text>
<rect x="642.6" y="258.4" width="43.1" height="75.6" fill="#1f77b4" rx="1.5"/>
<text x="664.1" y="254.4" text-anchor="middle" font-size="9" fill="#222222">301 ns</text>
<text x="642.6" y="352.0" text-anchor="middle" font-size="11" fill="#222222">alloc-string</text>
<rect x="721.0" y="201.3" width="43.1" height="132.7" fill="#2ca02c" rx="1.5"/>
<text x="742.6" y="197.3" text-anchor="middle" font-size="9" fill="#222222">534 ns</text>
<rect x="771.1" y="197.3" width="43.1" height="136.7" fill="#1f77b4" rx="1.5"/>
<text x="792.7" y="193.3" text-anchor="middle" font-size="9" fill="#222222">556 ns</text>
<text x="771.1" y="352.0" text-anchor="middle" font-size="11" fill="#222222">alloc-object</text>
<rect x="849.6" y="72.9" width="43.1" height="261.1" fill="#2ca02c" rx="1.5"/>
<text x="871.1" y="68.9" text-anchor="middle" font-size="9" fill="#222222">1.9 µs</text>
<rect x="899.7" y="73.2" width="43.1" height="260.8" fill="#1f77b4" rx="1.5"/>
<text x="921.3" y="69.2" text-anchor="middle" font-size="9" fill="#222222">1.9 µs</text>
<text x="899.7" y="352.0" text-anchor="middle" font-size="11" fill="#222222">alloc-array</text>
<line x1="64" y1="334" x2="964" y2="334" stroke="#222222" stroke-width="1.2"/>
<rect x="64" y="393" width="14" height="14" fill="#2ca02c" rx="2"/>
<text x="84" y="404" font-size="12" fill="#222222">Off (no limits)</text>
<rect x="219" y="393" width="14" height="14" fill="#1f77b4" rx="2"/>
<text x="239" y="404" font-size="12" fill="#222222">On (Default limits)</text>
<text x="968" y="422" text-anchor="end" font-size="11" font-style="italic" fill="#666666">log scale · bars overlap because O(1) charging adds ~0-4%</text>
</svg>