<svg xmlns="http://www.w3.org/2000/svg" width="980" height="430" viewBox="0 0 980 430" font-family="Segoe UI,Helvetica,Arial,sans-serif">
<rect width="980" height="430" fill="#ffffff"/>
<text x="490" y="26" text-anchor="middle" font-size="17" font-weight="600" fill="#222222">Pure-eval memory per op — managed is 0 only for scalar expressions</text>
<line x1="64" y1="334.0" x2="964" y2="334.0" stroke="#dddddd" stroke-width="1"/>
<text x="56" y="338.0" text-anchor="end" font-size="11" fill="#666666">1 B</text>
<line x1="64" y1="240.9" x2="964" y2="240.9" stroke="#dddddd" stroke-width="1"/>
<text x="56" y="244.9" text-anchor="end" font-size="11" fill="#666666">10 B</text>
<line x1="64" y1="147.7" x2="964" y2="147.7" stroke="#dddddd" stroke-width="1"/>
<text x="56" y="151.7" text-anchor="end" font-size="11" fill="#666666">100 B</text>
<line x1="64" y1="54.6" x2="964" y2="54.6" stroke="#dddddd" stroke-width="1"/>
<text x="56" y="58.6" text-anchor="end" font-size="11" fill="#666666">1000 B</text>
<rect x="78.1" y="332.0" width="43.1" height="2.0" fill="#2ca02c" rx="1.5"/>
<text x="99.7" y="328.0" text-anchor="middle" font-size="9" fill="#222222">0</text>
<rect x="128.3" y="132.7" width="43.1" height="201.3" fill="#1f77b4" rx="1.5"/>
<text x="149.8" y="128.7" text-anchor="middle" font-size="9" fill="#222222">145 B</text>
<text x="128.3" y="352.0" text-anchor="middle" font-size="11" fill="#222222">simple-few</text>
<rect x="206.7" y="332.0" width="43.1" height="2.0" fill="#2ca02c" rx="1.5"/>
<text x="228.3" y="328.0" text-anchor="middle" font-size="9" fill="#222222">0</text>
<rect x="256.9" y="134.1" width="43.1" height="199.9" fill="#1f77b4" rx="1.5"/>
<text x="278.4" y="130.1" text-anchor="middle" font-size="9" fill="#222222">140 B</text>
<text x="256.9" y="352.0" text-anchor="middle" font-size="11" fill="#222222">complex-few</text>
<rect x="335.3" y="332.0" width="43.1" height="2.0" fill="#2ca02c" rx="1.5"/>
<text x="356.8" y="328.0" text-anchor="middle" font-size="9" fill="#222222">0</text>
<rect x="385.4" y="131.9" width="43.1" height="202.1" fill="#1f77b4" rx="1.5"/>
<text x="407.0" y="127.9" text-anchor="middle" font-size="9" fill="#222222">148 B</text>
<text x="385.4" y="352.0" text-anchor="middle" font-size="11" fill="#222222">simple-many</text>
<rect x="463.9" y="332.0" width="43.1" height="2.0" fill="#2ca02c" rx="1.5"/>
<text x="485.4" y="328.0" text-anchor="middle" font-size="9" fill="#222222">0</text>
<rect x="514.0" y="133.6" width="43.1" height="200.4" fill="#1f77b4" rx="1.5"/>
<text x="535.6" y="129.6" text-anchor="middle" font-size="9" fill="#222222">142 B</text>
<text x="514.0" y="352.0" text-anchor="middle" font-size="11" fill="#222222">complex-many</text>
<rect x="592.4" y="108.5" width="43.1" height="225.5" fill="#2ca02c" rx="1.5"/>
<text x="614.0" y="104.5" text-anchor="middle" font-size="9" fill="#222222">264 B</text>
<rect x="642.6" y="75.7" width="43.1" height="258.3" fill="#1f77b4" rx="1.5"/>
<text x="664.1" y="71.7" text-anchor="middle" font-size="9" fill="#222222">593 B</text>
<text x="642.6" y="352.0" text-anchor="middle" font-size="11" fill="#222222">alloc-string</text>
<rect x="721.0" y="78.6" width="43.1" height="255.4" fill="#2ca02c" rx="1.5"/>
<text x="742.6" y="74.6" text-anchor="middle" font-size="9" fill="#222222">552 B</text>
<rect x="771.1" y="62.0" width="43.1" height="272.0" fill="#1f77b4" rx="1.5"/>
<text x="792.7" y="58.0" text-anchor="middle" font-size="9" fill="#222222">833 B</text>
<text x="771.1" y="352.0" text-anchor="middle" font-size="11" fill="#222222">alloc-object</text>
<rect x="849.6" y="62.4" width="43.1" height="271.6" fill="#2ca02c" rx="1.5"/>
<text x="871.1" y="58.4" text-anchor="middle" font-size="9" fill="#222222">824 B</text>
<rect x="899.7" y="56.0" width="43.1" height="278.0" fill="#1f77b4" rx="1.5"/>
<text x="921.3" y="52.0" text-anchor="middle" font-size="9" fill="#222222">966 B</text>
<text x="899.7" y="352.0" text-anchor="middle" font-size="11" fill="#222222">alloc-array</text>
<line x1="64" y1="334" x2="964" y2="334" stroke="#222222" stroke-width="1.2"/>
<rect x="64" y="393" width="14" height="14" fill="#2ca02c" rx="2"/>
<text x="84" y="404" font-size="12" fill="#222222">Managed GC</text>
<rect x="184" y="393" width="14" height="14" fill="#1f77b4" rx="2"/>
<text x="204" y="404" font-size="12" fill="#222222">Native heap (real)</text>
<text x="968" y="422" text-anchor="end" font-size="11" font-style="italic" fill="#666666">log scale · allocating expressions (right 3) do allocate on the managed hot path · all 4 engines' numbers in the table below</text>
</svg>