<svg xmlns="http://www.w3.org/2000/svg" width="860" height="420" viewBox="0 0 860 420" font-family="Segoe UI,Helvetica,Arial,sans-serif">
<rect width="860" height="420" fill="#ffffff"/>
<text x="430" y="26" text-anchor="middle" font-size="17" font-weight="600" fill="#222222">Memory per op — the native-heap blind spot (BenchmarkDotNet only sees the GC bars)</text>
<line x1="64" y1="324.0" x2="844" y2="324.0" stroke="#dddddd" stroke-width="1"/>
<text x="56" y="328.0" text-anchor="end" font-size="11" fill="#666666">1 B</text>
<line x1="64" y1="257.8" x2="844" y2="257.8" stroke="#dddddd" stroke-width="1"/>
<text x="56" y="261.8" text-anchor="end" font-size="11" fill="#666666">10 B</text>
<line x1="64" y1="191.6" x2="844" y2="191.6" stroke="#dddddd" stroke-width="1"/>
<text x="56" y="195.6" text-anchor="end" font-size="11" fill="#666666">100 B</text>
<line x1="64" y1="125.4" x2="844" y2="125.4" stroke="#dddddd" stroke-width="1"/>
<text x="56" y="129.4" text-anchor="end" font-size="11" fill="#666666">1000 B</text>
<line x1="64" y1="59.2" x2="844" y2="59.2" stroke="#dddddd" stroke-width="1"/>
<text x="56" y="63.2" text-anchor="end" font-size="11" fill="#666666">9.8 KB</text>
<line x1="64" y1="-7.0" x2="844" y2="-7.0" stroke="#dddddd" stroke-width="1"/>
<text x="56" y="-3.0" text-anchor="end" font-size="11" fill="#666666">97.7 KB</text>
<rect x="85.5" y="126.8" width="43.6" height="197.2" fill="#7bc47f" rx="1.5"/>
<text x="107.3" y="122.8" text-anchor="middle" font-size="9.5" fill="#222222">952 B</text>
<rect x="136.2" y="118.3" width="43.6" height="205.7" fill="#1f77b4" rx="1.5"/>
<text x="158.0" y="114.3" text-anchor="middle" font-size="9.5" fill="#222222">1.3 KB</text>
<rect x="186.8" y="322.0" width="43.6" height="2.0" fill="#2ca02c" rx="1.5"/>
<text x="208.7" y="318.0" text-anchor="middle" font-size="9.5" fill="#222222">0</text>
<text x="161.5" y="342.0" text-anchor="middle" font-size="12" fill="#222222">simple-few</text>
<rect x="280.4" y="123.2" width="43.6" height="200.8" fill="#7bc47f" rx="1.5"/>
<text x="302.3" y="119.2" text-anchor="middle" font-size="9.5" fill="#222222">1.1 KB</text>
<rect x="331.1" y="116.9" width="43.6" height="207.1" fill="#1f77b4" rx="1.5"/>
<text x="353.0" y="112.9" text-anchor="middle" font-size="9.5" fill="#222222">1.3 KB</text>
<rect x="381.8" y="322.0" width="43.6" height="2.0" fill="#2ca02c" rx="1.5"/>
<text x="403.7" y="318.0" text-anchor="middle" font-size="9.5" fill="#222222">0</text>
<text x="356.5" y="342.0" text-anchor="middle" font-size="12" fill="#222222">complex-few</text>
<rect x="475.4" y="56.0" width="43.6" height="268.0" fill="#7bc47f" rx="1.5"/>
<text x="497.3" y="52.0" text-anchor="middle" font-size="9.5" fill="#222222">10.9 KB</text>
<rect x="526.1" y="63.1" width="43.6" height="260.9" fill="#1f77b4" rx="1.5"/>
<text x="548.0" y="59.1" text-anchor="middle" font-size="9.5" fill="#222222">8.5 KB</text>
<rect x="576.9" y="322.0" width="43.6" height="2.0" fill="#2ca02c" rx="1.5"/>
<text x="598.7" y="318.0" text-anchor="middle" font-size="9.5" fill="#222222">0</text>
<text x="551.5" y="342.0" text-anchor="middle" font-size="12" fill="#222222">simple-many</text>
<rect x="670.5" y="78.1" width="43.6" height="245.9" fill="#7bc47f" rx="1.5"/>
<text x="692.3" y="74.1" text-anchor="middle" font-size="9.5" fill="#222222">5.1 KB</text>
<rect x="721.2" y="74.1" width="43.6" height="249.9" fill="#1f77b4" rx="1.5"/>
<text x="743.0" y="70.1" text-anchor="middle" font-size="9.5" fill="#222222">5.8 KB</text>
<rect x="771.9" y="322.0" width="43.6" height="2.0" fill="#2ca02c" rx="1.5"/>
<text x="793.7" y="318.0" text-anchor="middle" font-size="9.5" fill="#222222">0</text>
<text x="746.5" y="342.0" text-anchor="middle" font-size="12" fill="#222222">complex-many</text>
<line x1="64" y1="324" x2="844" y2="324" stroke="#222222" stroke-width="1.2"/>
<rect x="64" y="383" width="14" height="14" fill="#7bc47f" rx="2"/>
<text x="84" y="394" font-size="12" fill="#222222">Managed GC (JSON path)</text>
<rect x="268" y="383" width="14" height="14" fill="#1f77b4" rx="2"/>
<text x="288" y="394" font-size="12" fill="#222222">Native heap, real (JSON)</text>
<rect x="486" y="383" width="14" height="14" fill="#2ca02c" rx="2"/>
<text x="506" y="394" font-size="12" fill="#222222">Managed (pure path)</text>
<text x="848" y="412" text-anchor="end" font-size="11" font-style="italic" fill="#666666">log scale · .NET metrics miss native heap; instrumented allocator reveals it</text>
</svg>