<svg xmlns="http://www.w3.org/2000/svg" width="980" height="430" viewBox="0 0 980 430" font-family="Segoe UI,Helvetica,Arial,sans-serif">
<rect width="980" height="430" fill="#ffffff"/>
<text x="490" y="26" text-anchor="middle" font-size="17" font-weight="600" fill="#222222">Pure-eval memory per op — managed is 0 only for scalar expressions</text>
<line x1="64" y1="334.0" x2="964" y2="334.0" stroke="#dddddd" stroke-width="1"/>
<text x="56" y="338.0" text-anchor="end" font-size="11" fill="#666666">1 B</text>
<line x1="64" y1="249.6" x2="964" y2="249.6" stroke="#dddddd" stroke-width="1"/>
<text x="56" y="253.6" text-anchor="end" font-size="11" fill="#666666">10 B</text>
<line x1="64" y1="165.1" x2="964" y2="165.1" stroke="#dddddd" stroke-width="1"/>
<text x="56" y="169.1" text-anchor="end" font-size="11" fill="#666666">100 B</text>
<line x1="64" y1="80.7" x2="964" y2="80.7" stroke="#dddddd" stroke-width="1"/>
<text x="56" y="84.7" text-anchor="end" font-size="11" fill="#666666">1000 B</text>
<line x1="64" y1="-3.8" x2="964" y2="-3.8" stroke="#dddddd" stroke-width="1"/>
<text x="56" y="0.2" text-anchor="end" font-size="11" fill="#666666">9.8 KB</text>
<rect x="78.1" y="332.0" width="28.7" height="2.0" fill="#2ca02c" rx="1.5"/>
<text x="92.5" y="328.0" text-anchor="middle" font-size="9" fill="#222222">0</text>
<rect x="111.6" y="151.5" width="28.7" height="182.5" fill="#1f77b4" rx="1.5"/>
<text x="125.9" y="147.5" text-anchor="middle" font-size="9" fill="#222222">145 B</text>
<rect x="145.0" y="83.4" width="28.7" height="250.6" fill="#ff7f0e" rx="1.5"/>
<text x="159.4" y="79.4" text-anchor="middle" font-size="9" fill="#222222">928 B</text>
<text x="128.3" y="352.0" text-anchor="middle" font-size="11" fill="#222222">simple-few</text>
<rect x="206.7" y="332.0" width="28.7" height="2.0" fill="#2ca02c" rx="1.5"/>
<text x="221.1" y="328.0" text-anchor="middle" font-size="9" fill="#222222">0</text>
<rect x="240.1" y="152.8" width="28.7" height="181.2" fill="#1f77b4" rx="1.5"/>
<text x="254.5" y="148.8" text-anchor="middle" font-size="9" fill="#222222">140 B</text>
<rect x="273.6" y="81.9" width="28.7" height="252.1" fill="#ff7f0e" rx="1.5"/>
<text x="287.9" y="77.9" text-anchor="middle" font-size="9" fill="#222222">968 B</text>
<text x="256.9" y="352.0" text-anchor="middle" font-size="11" fill="#222222">complex-few</text>
<rect x="335.3" y="332.0" width="28.7" height="2.0" fill="#2ca02c" rx="1.5"/>
<text x="349.7" y="328.0" text-anchor="middle" font-size="9" fill="#222222">0</text>
<rect x="368.7" y="150.7" width="28.7" height="183.3" fill="#1f77b4" rx="1.5"/>
<text x="383.1" y="146.7" text-anchor="middle" font-size="9" fill="#222222">148 B</text>
<rect x="402.1" y="83.1" width="28.7" height="250.9" fill="#ff7f0e" rx="1.5"/>
<text x="416.5" y="79.1" text-anchor="middle" font-size="9" fill="#222222">936 B</text>
<text x="385.4" y="352.0" text-anchor="middle" font-size="11" fill="#222222">simple-many</text>
<rect x="463.9" y="332.0" width="28.7" height="2.0" fill="#2ca02c" rx="1.5"/>
<text x="478.2" y="328.0" text-anchor="middle" font-size="9" fill="#222222">0</text>
<rect x="497.3" y="152.3" width="28.7" height="181.7" fill="#1f77b4" rx="1.5"/>
<text x="511.7" y="148.3" text-anchor="middle" font-size="9" fill="#222222">142 B</text>
<rect x="530.7" y="81.6" width="28.7" height="252.4" fill="#ff7f0e" rx="1.5"/>
<text x="545.1" y="77.6" text-anchor="middle" font-size="9" fill="#222222">976 B</text>
<text x="514.0" y="352.0" text-anchor="middle" font-size="11" fill="#222222">complex-many</text>
<rect x="592.4" y="129.5" width="28.7" height="204.5" fill="#2ca02c" rx="1.5"/>
<text x="606.8" y="125.5" text-anchor="middle" font-size="9" fill="#222222">264 B</text>
<rect x="625.9" y="99.8" width="28.7" height="234.2" fill="#1f77b4" rx="1.5"/>
<text x="640.2" y="95.8" text-anchor="middle" font-size="9" fill="#222222">593 B</text>
<rect x="659.3" y="79.2" width="28.7" height="254.8" fill="#ff7f0e" rx="1.5"/>
<text x="673.7" y="75.2" text-anchor="middle" font-size="9" fill="#222222">1.0 KB</text>
<text x="642.6" y="352.0" text-anchor="middle" font-size="11" fill="#222222">alloc-string</text>
<rect x="721.0" y="102.5" width="28.7" height="231.5" fill="#2ca02c" rx="1.5"/>
<text x="735.4" y="98.5" text-anchor="middle" font-size="9" fill="#222222">552 B</text>
<rect x="754.4" y="87.4" width="28.7" height="246.6" fill="#1f77b4" rx="1.5"/>
<text x="768.8" y="83.4" text-anchor="middle" font-size="9" fill="#222222">833 B</text>
<rect x="787.9" y="56.0" width="28.7" height="278.0" fill="#ff7f0e" rx="1.5"/>
<text x="802.2" y="52.0" text-anchor="middle" font-size="9" fill="#222222">1.9 KB</text>
<text x="771.1" y="352.0" text-anchor="middle" font-size="11" fill="#222222">alloc-object</text>
<rect x="849.6" y="87.8" width="28.7" height="246.2" fill="#2ca02c" rx="1.5"/>
<text x="863.9" y="83.8" text-anchor="middle" font-size="9" fill="#222222">824 B</text>
<rect x="883.0" y="81.9" width="28.7" height="252.1" fill="#1f77b4" rx="1.5"/>
<text x="897.4" y="77.9" text-anchor="middle" font-size="9" fill="#222222">966 B</text>
<rect x="916.4" y="56.0" width="28.7" height="278.0" fill="#ff7f0e" rx="1.5"/>
<text x="930.8" y="52.0" text-anchor="middle" font-size="9" fill="#222222">1.9 KB</text>
<text x="899.7" y="352.0" text-anchor="middle" font-size="11" fill="#222222">alloc-array</text>
<line x1="64" y1="334" x2="964" y2="334" stroke="#222222" stroke-width="1.2"/>
<rect x="64" y="393" width="14" height="14" fill="#2ca02c" rx="2"/>
<text x="84" y="404" font-size="12" fill="#222222">Managed GC</text>
<rect x="184" y="393" width="14" height="14" fill="#1f77b4" rx="2"/>
<text x="204" y="404" font-size="12" fill="#222222">Native heap (real)</text>
<rect x="360" y="393" width="14" height="14" fill="#ff7f0e" rx="2"/>
<text x="380" y="404" font-size="12" fill="#222222">ZenEngine GC (native opaque)</text>
<text x="968" y="422" text-anchor="end" font-size="11" font-style="italic" fill="#666666">log scale · allocating expressions (right 3) do allocate on the managed hot path</text>
</svg>