<svg xmlns="http://www.w3.org/2000/svg" width="980" height="430" viewBox="0 0 980 430" font-family="Segoe UI,Helvetica,Arial,sans-serif">
<rect width="980" height="430" fill="#ffffff"/>
<text x="490" y="26" text-anchor="middle" font-size="17" font-weight="600" fill="#222222">JSON-eval memory per op — .NET metrics see only the green bar; native heap is hidden</text>
<line x1="64" y1="334.0" x2="964" y2="334.0" stroke="#dddddd" stroke-width="1"/>
<text x="56" y="338.0" text-anchor="end" font-size="11" fill="#666666">1 B</text>
<line x1="64" y1="265.3" x2="964" y2="265.3" stroke="#dddddd" stroke-width="1"/>
<text x="56" y="269.3" text-anchor="end" font-size="11" fill="#666666">10 B</text>
<line x1="64" y1="196.7" x2="964" y2="196.7" stroke="#dddddd" stroke-width="1"/>
<text x="56" y="200.7" text-anchor="end" font-size="11" fill="#666666">100 B</text>
<line x1="64" y1="128.0" x2="964" y2="128.0" stroke="#dddddd" stroke-width="1"/>
<text x="56" y="132.0" text-anchor="end" font-size="11" fill="#666666">1000 B</text>
<line x1="64" y1="59.4" x2="964" y2="59.4" stroke="#dddddd" stroke-width="1"/>
<text x="56" y="63.4" text-anchor="end" font-size="11" fill="#666666">9.8 KB</text>
<line x1="64" y1="-9.3" x2="964" y2="-9.3" stroke="#dddddd" stroke-width="1"/>
<text x="56" y="-5.3" text-anchor="end" font-size="11" fill="#666666">97.7 KB</text>
<rect x="78.1" y="129.5" width="28.7" height="204.5" fill="#2ca02c" rx="1.5"/>
<text x="92.5" y="125.5" text-anchor="middle" font-size="9" fill="#222222">952 B</text>
<rect x="111.6" y="120.6" width="28.7" height="213.4" fill="#1f77b4" rx="1.5"/>
<text x="125.9" y="116.6" text-anchor="middle" font-size="9" fill="#222222">1.3 KB</text>
<rect x="145.0" y="127.8" width="28.7" height="206.2" fill="#ff7f0e" rx="1.5"/>
<text x="159.4" y="123.8" text-anchor="middle" font-size="9" fill="#222222">1008 B</text>
<text x="128.3" y="352.0" text-anchor="middle" font-size="11" fill="#222222">simple-few</text>
<rect x="206.7" y="125.7" width="28.7" height="208.3" fill="#2ca02c" rx="1.5"/>
<text x="221.1" y="121.7" text-anchor="middle" font-size="9" fill="#222222">1.1 KB</text>
<rect x="240.1" y="119.2" width="28.7" height="214.8" fill="#1f77b4" rx="1.5"/>
<text x="254.5" y="115.2" text-anchor="middle" font-size="9" fill="#222222">1.3 KB</text>
<rect x="273.6" y="125.1" width="28.7" height="208.9" fill="#ff7f0e" rx="1.5"/>
<text x="287.9" y="121.1" text-anchor="middle" font-size="9" fill="#222222">1.1 KB</text>
<text x="256.9" y="352.0" text-anchor="middle" font-size="11" fill="#222222">complex-few</text>
<rect x="335.3" y="56.0" width="28.7" height="278.0" fill="#2ca02c" rx="1.5"/>
<text x="349.7" y="52.0" text-anchor="middle" font-size="9" fill="#222222">10.9 KB</text>
<rect x="368.7" y="63.4" width="28.7" height="270.6" fill="#1f77b4" rx="1.5"/>
<text x="383.1" y="59.4" text-anchor="middle" font-size="9" fill="#222222">8.5 KB</text>
<rect x="402.1" y="117.6" width="28.7" height="216.4" fill="#ff7f0e" rx="1.5"/>
<text x="416.5" y="113.6" text-anchor="middle" font-size="9" fill="#222222">1.4 KB</text>
<text x="385.4" y="352.0" text-anchor="middle" font-size="11" fill="#222222">simple-many</text>
<rect x="463.9" y="78.9" width="28.7" height="255.1" fill="#2ca02c" rx="1.5"/>
<text x="478.2" y="74.9" text-anchor="middle" font-size="9" fill="#222222">5.1 KB</text>
<rect x="497.3" y="74.8" width="28.7" height="259.2" fill="#1f77b4" rx="1.5"/>
<text x="511.7" y="70.8" text-anchor="middle" font-size="9" fill="#222222">5.8 KB</text>
<rect x="530.7" y="122.4" width="28.7" height="211.6" fill="#ff7f0e" rx="1.5"/>
<text x="545.1" y="118.4" text-anchor="middle" font-size="9" fill="#222222">1.2 KB</text>
<text x="514.0" y="352.0" text-anchor="middle" font-size="11" fill="#222222">complex-many</text>
<rect x="592.4" y="133.5" width="28.7" height="200.5" fill="#2ca02c" rx="1.5"/>
<text x="606.8" y="129.5" text-anchor="middle" font-size="9" fill="#222222">832 B</text>
<rect x="625.9" y="109.7" width="28.7" height="224.3" fill="#1f77b4" rx="1.5"/>
<text x="640.2" y="105.7" text-anchor="middle" font-size="9" fill="#222222">1.8 KB</text>
<rect x="659.3" y="124.2" width="28.7" height="209.8" fill="#ff7f0e" rx="1.5"/>
<text x="673.7" y="120.2" text-anchor="middle" font-size="9" fill="#222222">1.1 KB</text>
<text x="642.6" y="352.0" text-anchor="middle" font-size="11" fill="#222222">alloc-string</text>
<rect x="721.0" y="111.2" width="28.7" height="222.8" fill="#2ca02c" rx="1.5"/>
<text x="735.4" y="107.2" text-anchor="middle" font-size="9" fill="#222222">1.7 KB</text>
<rect x="754.4" y="101.0" width="28.7" height="233.0" fill="#1f77b4" rx="1.5"/>
<text x="768.8" y="97.0" text-anchor="middle" font-size="9" fill="#222222">2.4 KB</text>
<rect x="787.9" y="106.8" width="28.7" height="227.2" fill="#ff7f0e" rx="1.5"/>
<text x="802.2" y="102.8" text-anchor="middle" font-size="9" fill="#222222">2.0 KB</text>
<text x="771.1" y="352.0" text-anchor="middle" font-size="11" fill="#222222">alloc-object</text>
<rect x="849.6" y="82.3" width="28.7" height="251.7" fill="#2ca02c" rx="1.5"/>
<text x="863.9" y="78.3" text-anchor="middle" font-size="9" fill="#222222">4.5 KB</text>
<rect x="883.0" y="83.8" width="28.7" height="250.2" fill="#1f77b4" rx="1.5"/>
<text x="897.4" y="79.8" text-anchor="middle" font-size="9" fill="#222222">4.3 KB</text>
<rect x="916.4" y="106.1" width="28.7" height="227.9" fill="#ff7f0e" rx="1.5"/>
<text x="930.8" y="102.1" text-anchor="middle" font-size="9" fill="#222222">2.0 KB</text>
<text x="899.7" y="352.0" text-anchor="middle" font-size="11" fill="#222222">alloc-array</text>
<line x1="64" y1="334" x2="964" y2="334" stroke="#222222" stroke-width="1.2"/>
<rect x="64" y="393" width="14" height="14" fill="#2ca02c" rx="2"/>
<text x="84" y="404" font-size="12" fill="#222222">Managed GC</text>
<rect x="184" y="393" width="14" height="14" fill="#1f77b4" rx="2"/>
<text x="204" y="404" font-size="12" fill="#222222">Native heap (real)</text>
<rect x="360" y="393" width="14" height="14" fill="#ff7f0e" rx="2"/>
<text x="380" y="404" font-size="12" fill="#222222">ZenEngine GC (native opaque)</text>
<text x="968" y="422" text-anchor="end" font-size="11" font-style="italic" fill="#666666">log scale · BenchmarkDotNet's 'Allocated' misses the blue native heap entirely</text>
</svg>