<svg xmlns="http://www.w3.org/2000/svg" width="980" height="430" viewBox="0 0 980 430" font-family="Segoe UI,Helvetica,Arial,sans-serif">
<rect width="980" height="430" fill="#ffffff"/>
<text x="490" y="26" text-anchor="middle" font-size="17" font-weight="600" fill="#222222">Parse / compile throughput (source text → compiled)</text>
<line x1="64" y1="484.1" x2="964" y2="484.1" stroke="#dddddd" stroke-width="1"/>
<text x="56" y="488.1" text-anchor="end" font-size="11" fill="#666666">100 ns</text>
<line x1="64" y1="275.0" x2="964" y2="275.0" stroke="#dddddd" stroke-width="1"/>
<text x="56" y="279.0" text-anchor="end" font-size="11" fill="#666666">1.0 µs</text>
<line x1="64" y1="65.9" x2="964" y2="65.9" stroke="#dddddd" stroke-width="1"/>
<text x="56" y="69.9" text-anchor="end" font-size="11" fill="#666666">10.0 µs</text>
<line x1="64" y1="-143.2" x2="964" y2="-143.2" stroke="#dddddd" stroke-width="1"/>
<text x="56" y="-139.2" text-anchor="end" font-size="11" fill="#666666">100.0 µs</text>
<rect x="78.1" y="334.0" width="43.1" height="0.0" fill="#2ca02c" rx="1.5"/>
<text x="99.7" y="330.0" text-anchor="middle" font-size="9" fill="#222222">522 ns</text>
<rect x="128.3" y="308.5" width="43.1" height="25.5" fill="#1f77b4" rx="1.5"/>
<text x="149.8" y="304.5" text-anchor="middle" font-size="9" fill="#222222">691 ns</text>
<text x="128.3" y="352.0" text-anchor="middle" font-size="11" fill="#222222">simple-few</text>
<rect x="206.7" y="234.7" width="43.1" height="99.3" fill="#2ca02c" rx="1.5"/>
<text x="228.3" y="230.7" text-anchor="middle" font-size="9" fill="#222222">1.6 µs</text>
<rect x="256.9" y="216.1" width="43.1" height="117.9" fill="#1f77b4" rx="1.5"/>
<text x="278.4" y="212.1" text-anchor="middle" font-size="9" fill="#222222">1.9 µs</text>
<text x="256.9" y="352.0" text-anchor="middle" font-size="11" fill="#222222">complex-few</text>
<rect x="335.3" y="116.1" width="43.1" height="217.9" fill="#2ca02c" rx="1.5"/>
<text x="356.8" y="112.1" text-anchor="middle" font-size="9" fill="#222222">5.8 µs</text>
<rect x="385.4" y="60.0" width="43.1" height="274.0" fill="#1f77b4" rx="1.5"/>
<text x="407.0" y="56.0" text-anchor="middle" font-size="9" fill="#222222">10.7 µs</text>
<text x="385.4" y="352.0" text-anchor="middle" font-size="11" fill="#222222">simple-many</text>
<rect x="463.9" y="97.9" width="43.1" height="236.1" fill="#2ca02c" rx="1.5"/>
<text x="485.4" y="93.9" text-anchor="middle" font-size="9" fill="#222222">7.0 µs</text>
<rect x="514.0" y="56.0" width="43.1" height="278.0" fill="#1f77b4" rx="1.5"/>
<text x="535.6" y="52.0" text-anchor="middle" font-size="9" fill="#222222">11.2 µs</text>
<text x="514.0" y="352.0" text-anchor="middle" font-size="11" fill="#222222">complex-many</text>
<rect x="592.4" y="269.5" width="43.1" height="64.5" fill="#2ca02c" rx="1.5"/>
<text x="614.0" y="265.5" text-anchor="middle" font-size="9" fill="#222222">1.1 µs</text>
<rect x="642.6" y="261.3" width="43.1" height="72.7" fill="#1f77b4" rx="1.5"/>
<text x="664.1" y="257.3" text-anchor="middle" font-size="9" fill="#222222">1.2 µs</text>
<text x="642.6" y="352.0" text-anchor="middle" font-size="11" fill="#222222">alloc-string</text>
<rect x="721.0" y="203.4" width="43.1" height="130.6" fill="#2ca02c" rx="1.5"/>
<text x="742.6" y="199.4" text-anchor="middle" font-size="9" fill="#222222">2.2 µs</text>
<rect x="771.1" y="189.4" width="43.1" height="144.6" fill="#1f77b4" rx="1.5"/>
<text x="792.7" y="185.4" text-anchor="middle" font-size="9" fill="#222222">2.6 µs</text>
<text x="771.1" y="352.0" text-anchor="middle" font-size="11" fill="#222222">alloc-object</text>
<rect x="849.6" y="317.6" width="43.1" height="16.4" fill="#2ca02c" rx="1.5"/>
<text x="871.1" y="313.6" text-anchor="middle" font-size="9" fill="#222222">625 ns</text>
<rect x="899.7" y="309.5" width="43.1" height="24.5" fill="#1f77b4" rx="1.5"/>
<text x="921.3" y="305.5" text-anchor="middle" font-size="9" fill="#222222">684 ns</text>
<text x="899.7" y="352.0" text-anchor="middle" font-size="11" fill="#222222">alloc-array</text>
<line x1="64" y1="334" x2="964" y2="334" stroke="#222222" stroke-width="1.2"/>
<rect x="64" y="393" width="14" height="14" fill="#2ca02c" rx="2"/>
<text x="84" y="404" font-size="12" fill="#222222">Managed</text>
<rect x="163" y="393" width="14" height="14" fill="#1f77b4" rx="2"/>
<text x="183" y="404" font-size="12" fill="#222222">Native (manual)</text>
<text x="968" y="422" text-anchor="end" font-size="11" font-style="italic" fill="#666666">log scale · lower is better · left 4 = scalar, right 3 = allocating</text>
</svg>